<svg xmlns="http://www.w3.org/2000/svg" xmlns:xlink="http://www.w3.org/1999/xlink" xmlns:s="https://github.com/nturley/netlistsvg" width="469" height="396.5"><style>svg {
  stroke:#000;
  fill:none;
}
text {
  fill:#000;
  stroke:none;
  font-size:10px;
  font-weight: bold;
  font-family: "Courier New", monospace;
}
line {
    stroke-linecap: round;
}
.nodelabel {
  text-anchor: middle;
}
.inputPortLabel {
  text-anchor: end;
}
.splitjoinBody {
  fill:#000;
}</style><g s:type="and" transform="translate(274.3333333333333,304.5)" s:width="30" s:height="25" id="cell_\10"><s:alias val="$and"/><s:alias val="$logic_and"/><s:alias val="$_AND_"/><path d="M0,0 L0,25 L15,25 A15 12.5 0 0 0 15,0 Z" class="cell_\10"/><g s:x="0" s:y="5" s:pid="A"/><g s:x="0" s:y="20" s:pid="B"/><g s:x="30" s:y="12.5" s:pid="Y"/></g><g s:type="and" transform="translate(340,312)" s:width="30" s:height="25" id="cell_\11"><s:alias val="$and"/><s:alias val="$logic_and"/><s:alias val="$_AND_"/><path d="M0,0 L0,25 L15,25 A15 12.5 0 0 0 15,0 Z" class="cell_\11"/><g s:x="0" s:y="5" s:pid="A"/><g s:x="0" s:y="20" s:pid="B"/><g s:x="30" s:y="12.5" s:pid="Y"/></g><g s:type="mux" transform="translate(343.3333333333333,62)" s:width="20" s:height="40" id="cell_\14"><s:alias val="$pmux"/><s:alias val="$mux"/><s:alias val="$_MUX_"/><path d="M0,0 L20,10 L20,30 L0,40 Z" class="cell_\14"/><text x="5" y="32" class="nodelabel cell_\14" s:attribute="">1</text><text x="5" y="13" class="nodelabel cell_\14" s:attribute="">0</text><g s:x="0" s:y="10" s:pid="A"/><g s:x="0" s:y="30" s:pid="B"/><g s:x="10" s:y="35" s:pid="S"/><g s:x="20" s:y="20" s:pid="Y"/></g><g s:type="mux" transform="translate(405,72)" s:width="20" s:height="40" id="cell_\16"><s:alias val="$pmux"/><s:alias val="$mux"/><s:alias val="$_MUX_"/><path d="M0,0 L20,10 L20,30 L0,40 Z" class="cell_\16"/><text x="5" y="32" class="nodelabel cell_\16" s:attribute="">1</text><text x="5" y="13" class="nodelabel cell_\16" s:attribute="">0</text><g s:x="0" s:y="10" s:pid="A"/><g s:x="0" s:y="30" s:pid="B"/><g s:x="10" s:y="35" s:pid="S"/><g s:x="20" s:y="20" s:pid="Y"/></g><g s:type="mux" transform="translate(281,153)" s:width="20" s:height="40" id="cell_\18"><s:alias val="$pmux"/><s:alias val="$mux"/><s:alias val="$_MUX_"/><path d="M0,0 L20,10 L20,30 L0,40 Z" class="cell_\18"/><text x="5" y="32" class="nodelabel cell_\18" s:attribute="">1</text><text x="5" y="13" class="nodelabel cell_\18" s:attribute="">0</text><g s:x="0" s:y="10" s:pid="A"/><g s:x="0" s:y="30" s:pid="B"/><g s:x="10" s:y="35" s:pid="S"/><g s:x="20" s:y="20" s:pid="Y"/></g><g s:type="and" transform="translate(208.66666666666666,190.5)" s:width="30" s:height="25" id="cell_\5"><s:alias val="$and"/><s:alias val="$logic_and"/><s:alias val="$_AND_"/><path d="M0,0 L0,25 L15,25 A15 12.5 0 0 0 15,0 Z" class="cell_\5"/><g s:x="0" s:y="5" s:pid="A"/><g s:x="0" s:y="20" s:pid="B"/><g s:x="30" s:y="12.5" s:pid="Y"/></g><g s:type="not" transform="translate(209,299.5)" s:width="30" s:height="20" id="cell_\7"><s:alias val="$_NOT_"/><s:alias val="$not"/><s:alias val="$logic_not"/><path d="M0,0 L0,20 L20,10 Z" class="cell_\7"/><circle cx="24" cy="10" r="3" class="cell_\7"/><g s:x="-1" s:y="10" s:pid="A"/><g s:x="27" s:y="10" s:pid="Y"/></g><g s:type="not" transform="translate(209,364.5)" s:width="30" s:height="20" id="cell_\9"><s:alias val="$_NOT_"/><s:alias val="$not"/><s:alias val="$logic_not"/><path d="M0,0 L0,20 L20,10 Z" class="cell_\9"/><circle cx="24" cy="10" r="3" class="cell_\9"/><g s:x="-1" s:y="10" s:pid="A"/><g s:x="27" s:y="10" s:pid="Y"/></g><g s:type="inputExt" transform="translate(12,22)" s:width="30" s:height="20" id="cell_clk"><text x="15" y="-4" class="nodelabel cell_clk" s:attribute="ref">clk</text><s:alias val="$_inputExt_"/><path d="M0,0 L0,20 L15,20 L30,10 L15,0 Z" class="cell_clk"/><g s:x="30" s:y="10" s:pid="Y"/></g><g s:type="inputExt" transform="translate(124,22)" s:width="30" s:height="20" id="cell_brick_display"><text x="15" y="-4" class="nodelabel cell_brick_display" s:attribute="ref">brick_display</text><s:alias val="$_inputExt_"/><path d="M0,0 L0,20 L15,20 L30,10 L15,0 Z" class="cell_brick_display"/><g s:x="30" s:y="10" s:pid="Y"/></g><g s:type="inputExt" transform="translate(89,250.5)" s:width="30" s:height="20" id="cell_ball_display"><text x="15" y="-4" class="nodelabel cell_ball_display" s:attribute="ref">ball_display</text><s:alias val="$_inputExt_"/><path d="M0,0 L0,20 L15,20 L30,10 L15,0 Z" class="cell_ball_display"/><g s:x="30" s:y="10" s:pid="Y"/></g><g s:type="inputExt" transform="translate(89,185.5)" s:width="30" s:height="20" id="cell_paddle_display"><text x="15" y="-4" class="nodelabel cell_paddle_display" s:attribute="ref">paddle_display</text><s:alias val="$_inputExt_"/><path d="M0,0 L0,20 L15,20 L30,10 L15,0 Z" class="cell_paddle_display"/><g s:x="30" s:y="10" s:pid="Y"/></g><g s:type="inputExt" transform="translate(12,364.5)" s:width="30" s:height="20" id="cell_vga_row"><text x="15" y="-4" class="nodelabel cell_vga_row" s:attribute="ref">vga_row</text><s:alias val="$_inputExt_"/><path d="M0,0 L0,20 L15,20 L30,10 L15,0 Z" class="cell_vga_row"/><g s:x="30" s:y="10" s:pid="Y"/></g><g s:type="inputExt" transform="translate(12,299.5)" s:width="30" s:height="20" id="cell_vga_col"><text x="15" y="-4" class="nodelabel cell_vga_col" s:attribute="ref">vga_col</text><s:alias val="$_inputExt_"/><path d="M0,0 L0,20 L15,20 L30,10 L15,0 Z" class="cell_vga_col"/><g s:x="30" s:y="10" s:pid="Y"/></g><g s:type="outputExt" transform="translate(62,22)" s:width="30" s:height="20" id="cell_changeX"><text x="15" y="-4" class="nodelabel cell_changeX" s:attribute="ref">changeX</text><s:alias val="$_outputExt_"/><path d="M30,0 L30,20 L15,20 L0,10 L15,0 Z" class="cell_changeX"/><g s:x="0" s:y="10" s:pid="A"/></g><g s:type="outputExt" transform="translate(405,344.5)" s:width="30" s:height="20" id="cell_changeY"><text x="15" y="-4" class="nodelabel cell_changeY" s:attribute="ref">changeY</text><s:alias val="$_outputExt_"/><path d="M30,0 L30,20 L15,20 L0,10 L15,0 Z" class="cell_changeY"/><g s:x="0" s:y="10" s:pid="A"/></g><g s:type="constant" transform="translate(274,113)" s:width="30" s:height="20" id="cell_0"><text x="15" y="-4" class="nodelabel cell_0" s:attribute="ref">0</text><s:alias val="$_constant_"/><rect width="30" height="20" class="cell_0"/><g s:x="31" s:y="10" s:pid="Y"/></g><g s:type="constant" transform="translate(208,82)" s:width="30" s:height="20" id="cell_1"><text x="15" y="-4" class="nodelabel cell_1" s:attribute="ref">1</text><s:alias val="$_constant_"/><rect width="30" height="20" class="cell_1"/><g s:x="31" s:y="10" s:pid="Y"/></g><line x1="236" x2="274.3333333333333" y1="309.5" y2="309.5" class="net_27 width_1" style="stroke-width: 1"/><line x1="236" x2="249" y1="374.5" y2="374.5" class="net_28 width_1" style="stroke-width: 1"/><line x1="249" x2="249" y1="374.5" y2="324.5" class="net_28 width_1" style="stroke-width: 1"/><line x1="249" x2="274.3333333333333" y1="324.5" y2="324.5" class="net_28 width_1" style="stroke-width: 1"/><line x1="304.3333333333333" x2="340" y1="317" y2="317" class="net_29 width_1" style="stroke-width: 1"/><line x1="301" x2="315" y1="173" y2="173" class="net_26 width_1" style="stroke-width: 1"/><line x1="315" x2="315" y1="173" y2="332" class="net_26 width_1" style="stroke-width: 1"/><circle cx="315" cy="173" r="2" style="fill:#000" class="net_26 width_1"/><circle cx="315" cy="332" r="2" style="fill:#000" class="net_26 width_1"/><line x1="315" x2="340" y1="332" y2="332" class="net_26 width_1" style="stroke-width: 1"/><line x1="301" x2="353.3333333333333" y1="173" y2="173" class="net_26 width_1" style="stroke-width: 1"/><line x1="353.3333333333333" x2="353.3333333333333" y1="173" y2="97" class="net_26 width_1" style="stroke-width: 1"/><line x1="301" x2="315" y1="173" y2="173" class="net_26 width_1" style="stroke-width: 1"/><line x1="315" x2="315" y1="173" y2="354.5" class="net_26 width_1" style="stroke-width: 1"/><line x1="315" x2="405" y1="354.5" y2="354.5" class="net_26 width_1" style="stroke-width: 1"/><line x1="305" x2="315" y1="123" y2="123" class="net_34 width_1" style="stroke-width: 1"/><line x1="315" x2="315" y1="123" y2="72" class="net_34 width_1" style="stroke-width: 1"/><circle cx="315" cy="123" r="2" style="fill:#000" class="net_34 width_1"/><line x1="315" x2="343.3333333333333" y1="72" y2="72" class="net_34 width_1" style="stroke-width: 1"/><line x1="305" x2="380" y1="123" y2="123" class="net_34 width_1" style="stroke-width: 1"/><line x1="380" x2="380" y1="123" y2="102" class="net_34 width_1" style="stroke-width: 1"/><line x1="380" x2="405" y1="102" y2="102" class="net_34 width_1" style="stroke-width: 1"/><line x1="239" x2="343.3333333333333" y1="92" y2="92" class="net_35 width_1" style="stroke-width: 1"/><line x1="239" x2="249" y1="92" y2="92" class="net_35 width_1" style="stroke-width: 1"/><line x1="249" x2="249" y1="92" y2="183" class="net_35 width_1" style="stroke-width: 1"/><circle cx="249" cy="92" r="2" style="fill:#000" class="net_35 width_1"/><line x1="249" x2="281" y1="183" y2="183" class="net_35 width_1" style="stroke-width: 1"/><line x1="363.3333333333333" x2="405" y1="82" y2="82" class="net_31 width_1" style="stroke-width: 1"/><line x1="370" x2="415" y1="324.5" y2="324.5" class="net_30 width_1" style="stroke-width: 1"/><line x1="415" x2="415" y1="324.5" y2="107" class="net_30 width_1" style="stroke-width: 1"/><line x1="425" x2="457" y1="92" y2="92" class="net_32 width_1" style="stroke-width: 1"/><line x1="457" x2="457" y1="92" y2="143" class="net_32 width_1" style="stroke-width: 1"/><line x1="457" x2="259" y1="143" y2="143" class="net_32 width_1" style="stroke-width: 1"/><line x1="259" x2="259" y1="143" y2="163" class="net_32 width_1" style="stroke-width: 1"/><line x1="259" x2="281" y1="163" y2="163" class="net_32 width_1" style="stroke-width: 1"/><line x1="238.66666666666666" x2="291" y1="203" y2="203" class="net_33 width_1" style="stroke-width: 1"/><line x1="291" x2="291" y1="203" y2="188" class="net_33 width_1" style="stroke-width: 1"/><line x1="119" x2="208.66666666666666" y1="195.5" y2="195.5" class="net_5 width_1" style="stroke-width: 1"/><line x1="119" x2="183" y1="260.5" y2="260.5" class="net_4 width_1" style="stroke-width: 1"/><line x1="183" x2="183" y1="260.5" y2="210.5" class="net_4 width_1" style="stroke-width: 1"/><line x1="183" x2="208.66666666666666" y1="210.5" y2="210.5" class="net_4 width_1" style="stroke-width: 1"/><line x1="42" x2="208" y1="309.5" y2="309.5" class="net_16,17,18,19,20,21,22,23,24,25 width_10" style="stroke-width: 2"/><line x1="42" x2="208" y1="374.5" y2="374.5" class="net_6,7,8,9,10,11,12,13,14,15 width_10" style="stroke-width: 2"/><rect x="130" y="304.5" width="22" height="9" class="net_16,17,18,19,20,21,22,23,24,25 width_10 busLabel_10" style="fill: white; stroke: none"/><text x="129" y="312.5" class="net_16,17,18,19,20,21,22,23,24,25 width_10 busLabel_10">/10/</text><rect x="130" y="369.5" width="22" height="9" class="net_6,7,8,9,10,11,12,13,14,15 width_10 busLabel_10" style="fill: white; stroke: none"/><text x="129" y="377.5" class="net_6,7,8,9,10,11,12,13,14,15 width_10 busLabel_10">/10/</text></svg>