<svg xmlns="http://www.w3.org/2000/svg" xmlns:xlink="http://www.w3.org/1999/xlink" xmlns:s="https://github.com/nturley/netlistsvg" width="1500" height="696"><style>svg {
  stroke:#000;
  fill:none;
}
text {
  fill:#000;
  stroke:none;
  font-size:10px;
  font-weight: bold;
  font-family: "Courier New", monospace;
}
line {
    stroke-linecap: round;
}
.nodelabel {
  text-anchor: middle;
}
.inputPortLabel {
  text-anchor: end;
}
.splitjoinBody {
  fill:#000;
}</style><g s:type="mux-bus" transform="translate(1014.6666666666666,98)" s:width="24" s:height="40" id="cell_\53"><s:alias val="$pmux-bus"/><s:alias val="$mux-bus"/><s:alias val="$_MUX_-bus"/><path d="M0,0 L20,10 L20,30 L0,40 Z" class="cell_\53"/><path d="M4,2 L4,0 L22,9 L22,31 L4,40 L4,38" class="cell_\53"/><path d="M8,2 L8,0 L24,8 L24,32 L8,40 L8,38" class="cell_\53"/><text x="5" y="32" class="nodelabel cell_\53" s:attribute="">1</text><text x="5" y="13" class="nodelabel cell_\53" s:attribute="">0</text><g s:x="-1" s:y="10" s:pid="A"/><g s:x="-1" s:y="30" s:pid="B"/><g s:x="12" s:y="38" s:pid="S"/><g s:x="24.5" s:y="20" s:pid="Y"/></g><g s:type="mux-bus" transform="translate(1118,466.5)" s:width="24" s:height="40" id="cell_\55"><s:alias val="$pmux-bus"/><s:alias val="$mux-bus"/><s:alias val="$_MUX_-bus"/><path d="M0,0 L20,10 L20,30 L0,40 Z" class="cell_\55"/><path d="M4,2 L4,0 L22,9 L22,31 L4,40 L4,38" class="cell_\55"/><path d="M8,2 L8,0 L24,8 L24,32 L8,40 L8,38" class="cell_\55"/><text x="5" y="32" class="nodelabel cell_\55" s:attribute="">1</text><text x="5" y="13" class="nodelabel cell_\55" s:attribute="">0</text><g s:x="-1" s:y="10" s:pid="A"/><g s:x="-1" s:y="30" s:pid="B"/><g s:x="12" s:y="38" s:pid="S"/><g s:x="24.5" s:y="20" s:pid="Y"/></g><g s:type="mux-bus" transform="translate(1217.5,456.5)" s:width="24" s:height="40" id="cell_\57"><s:alias val="$pmux-bus"/><s:alias val="$mux-bus"/><s:alias val="$_MUX_-bus"/><path d="M0,0 L20,10 L20,30 L0,40 Z" class="cell_\57"/><path d="M4,2 L4,0 L22,9 L22,31 L4,40 L4,38" class="cell_\57"/><path d="M8,2 L8,0 L24,8 L24,32 L8,40 L8,38" class="cell_\57"/><text x="5" y="32" class="nodelabel cell_\57" s:attribute="">1</text><text x="5" y="13" class="nodelabel cell_\57" s:attribute="">0</text><g s:x="-1" s:y="10" s:pid="A"/><g s:x="-1" s:y="30" s:pid="B"/><g s:x="12" s:y="38" s:pid="S"/><g s:x="24.5" s:y="20" s:pid="Y"/></g><g s:type="dff" transform="translate(1317,466.5)" s:width="30" s:height="40" id="cell_\60"><s:alias val="$dff"/><s:alias val="$_DFF_"/><s:alias val="$_DFF_P_"/><s:alias val="dff-bus"/><s:alias val="$dff-bus"/><s:alias val="$_DFF_-bus"/><s:alias val="$_DFF_P_-bus"/><rect width="30" height="40" x="0" y="0" class="cell_\60"/><path d="M0,35 L5,30 L0,25" class="cell_\60"/><g s:x="31" s:y="10" s:pid="Q"/><g s:x="-1" s:y="30" s:pid="CLK"/><g s:x="-1" s:y="30" s:pid="C"/><g s:x="-1" s:y="10" s:pid="D"/></g><g s:type="generic" transform="translate(903,366.5)" s:width="30" s:height="40" id="cell_ballvga"><text x="15" y="-4" class="nodelabel cell_ballvga" s:attribute="ref">ball</text><rect width="30" height="140" s:generic="body" class="cell_ballvga"/><g transform="translate(0,10)" s:x="0" s:y="10" s:pid="in0" id="port_ballvga~changex"><text x="-3" y="-4" class="inputPortLabel cell_ballvga">changex</text></g><g transform="translate(0,30)" s:x="0" s:y="10" s:pid="in0" id="port_ballvga~changey"><text x="-3" y="-4" class="inputPortLabel cell_ballvga">changey</text></g><g transform="translate(0,50)" s:x="0" s:y="10" s:pid="in0" id="port_ballvga~clk"><text x="-3" y="-4" class="inputPortLabel cell_ballvga">clk</text></g><g transform="translate(0,70)" s:x="0" s:y="10" s:pid="in0" id="port_ballvga~next_velocity"><text x="-3" y="-4" class="inputPortLabel cell_ballvga">next_velocity</text></g><g transform="translate(0,90)" s:x="0" s:y="10" s:pid="in0" id="port_ballvga~start"><text x="-3" y="-4" class="inputPortLabel cell_ballvga">start</text></g><g transform="translate(0,110)" s:x="0" s:y="10" s:pid="in0" id="port_ballvga~vga_col"><text x="-3" y="-4" class="inputPortLabel cell_ballvga">vga_col</text></g><g transform="translate(0,130)" s:x="0" s:y="10" s:pid="in0" id="port_ballvga~vga_row"><text x="-3" y="-4" class="inputPortLabel cell_ballvga">vga_row</text></g><g transform="translate(30,10)" s:x="30" s:y="10" s:pid="out0" id="port_ballvga~display"><text x="5" y="-4" style="fill:#000; stroke:none" class="cell_ballvga">display</text></g><g transform="translate(30,30)" s:x="30" s:y="10" s:pid="out0" id="port_ballvga~lives"><text x="5" y="-4" style="fill:#000; stroke:none" class="cell_ballvga">lives</text></g></g><g s:type="generic" transform="translate(710,168)" s:width="30" s:height="40" id="cell_collisionvga"><text x="15" y="-4" class="nodelabel cell_collisionvga" s:attribute="ref">collision</text><rect width="30" height="120" s:generic="body" class="cell_collisionvga"/><g transform="translate(0,10)" s:x="0" s:y="10" s:pid="in0" id="port_collisionvga~ball_display"><text x="-3" y="-4" class="inputPortLabel cell_collisionvga">ball_display</text></g><g transform="translate(0,30)" s:x="0" s:y="10" s:pid="in0" id="port_collisionvga~brick_display"><text x="-3" y="-4" class="inputPortLabel cell_collisionvga">brick_display</text></g><g transform="translate(0,50)" s:x="0" s:y="10" s:pid="in0" id="port_collisionvga~clk"><text x="-3" y="-4" class="inputPortLabel cell_collisionvga">clk</text></g><g transform="translate(0,70)" s:x="0" s:y="10" s:pid="in0" id="port_collisionvga~paddle_display"><text x="-3" y="-4" class="inputPortLabel cell_collisionvga">paddle_display</text></g><g transform="translate(0,90)" s:x="0" s:y="10" s:pid="in0" id="port_collisionvga~vga_col"><text x="-3" y="-4" class="inputPortLabel cell_collisionvga">vga_col</text></g><g transform="translate(0,110)" s:x="0" s:y="10" s:pid="in0" id="port_collisionvga~vga_row"><text x="-3" y="-4" class="inputPortLabel cell_collisionvga">vga_row</text></g><g transform="translate(30,10)" s:x="30" s:y="10" s:pid="out0" id="port_collisionvga~changex"><text x="5" y="-4" style="fill:#000; stroke:none" class="cell_collisionvga">changex</text></g><g transform="translate(30,30)" s:x="30" s:y="10" s:pid="out0" id="port_collisionvga~changey"><text x="5" y="-4" style="fill:#000; stroke:none" class="cell_collisionvga">changey</text></g></g><g s:type="generic" transform="translate(516,346.5)" s:width="30" s:height="40" id="cell_paddlevga"><text x="15" y="-4" class="nodelabel cell_paddlevga" s:attribute="ref">paddle</text><rect width="30" height="100" s:generic="body" class="cell_paddlevga"/><g transform="translate(0,10)" s:x="0" s:y="10" s:pid="in0" id="port_paddlevga~clk"><text x="-3" y="-4" class="inputPortLabel cell_paddlevga">clk</text></g><g transform="translate(0,30)" s:x="0" s:y="10" s:pid="in0" id="port_paddlevga~left"><text x="-3" y="-4" class="inputPortLabel cell_paddlevga">left</text></g><g transform="translate(0,50)" s:x="0" s:y="10" s:pid="in0" id="port_paddlevga~right"><text x="-3" y="-4" class="inputPortLabel cell_paddlevga">right</text></g><g transform="translate(0,70)" s:x="0" s:y="10" s:pid="in0" id="port_paddlevga~vga_col"><text x="-3" y="-4" class="inputPortLabel cell_paddlevga">vga_col</text></g><g transform="translate(0,90)" s:x="0" s:y="10" s:pid="in0" id="port_paddlevga~vga_row"><text x="-3" y="-4" class="inputPortLabel cell_paddlevga">vga_row</text></g><g transform="translate(30,10)" s:x="30" s:y="10" s:pid="out0" id="port_paddlevga~display"><text x="5" y="-4" style="fill:#000; stroke:none" class="cell_paddlevga">display</text></g></g><g s:type="generic" transform="translate(250,541)" s:width="30" s:height="40" id="cell_vga1"><text x="15" y="-4" class="nodelabel cell_vga1" s:attribute="ref">vga</text><rect width="30" height="140" s:generic="body" class="cell_vga1"/><g transform="translate(0,10)" s:x="0" s:y="10" s:pid="in0" id="port_vga1~clk_in1"><text x="-3" y="-4" class="inputPortLabel cell_vga1">clk_in1</text></g><g transform="translate(30,10)" s:x="30" s:y="10" s:pid="out0" id="port_vga1~c"><text x="5" y="-4" style="fill:#000; stroke:none" class="cell_vga1">c</text></g><g transform="translate(30,30)" s:x="30" s:y="10" s:pid="out0" id="port_vga1~clk_locked1"><text x="5" y="-4" style="fill:#000; stroke:none" class="cell_vga1">clk_locked1</text></g><g transform="translate(30,50)" s:x="30" s:y="10" s:pid="out0" id="port_vga1~clk_out1"><text x="5" y="-4" style="fill:#000; stroke:none" class="cell_vga1">clk_out1</text></g><g transform="translate(30,70)" s:x="30" s:y="10" s:pid="out0" id="port_vga1~hsync"><text x="5" y="-4" style="fill:#000; stroke:none" class="cell_vga1">hsync</text></g><g transform="translate(30,90)" s:x="30" s:y="10" s:pid="out0" id="port_vga1~r"><text x="5" y="-4" style="fill:#000; stroke:none" class="cell_vga1">r</text></g><g transform="translate(30,110)" s:x="30" s:y="10" s:pid="out0" id="port_vga1~valid"><text x="5" y="-4" style="fill:#000; stroke:none" class="cell_vga1">valid</text></g><g transform="translate(30,130)" s:x="30" s:y="10" s:pid="out0" id="port_vga1~vsync"><text x="5" y="-4" style="fill:#000; stroke:none" class="cell_vga1">vsync</text></g></g><g s:type="inputExt" transform="translate(408,322)" s:width="30" s:height="20" id="cell_left"><text x="15" y="-4" class="nodelabel cell_left" s:attribute="ref">left</text><s:alias val="$_inputExt_"/><path d="M0,0 L0,20 L15,20 L30,10 L15,0 Z" class="cell_left"/><g s:x="30" s:y="10" s:pid="Y"/></g><g s:type="inputExt" transform="translate(408,387)" s:width="30" s:height="20" id="cell_right"><text x="15" y="-4" class="nodelabel cell_right" s:attribute="ref">right</text><s:alias val="$_inputExt_"/><path d="M0,0 L0,20 L15,20 L30,10 L15,0 Z" class="cell_right"/><g s:x="30" s:y="10" s:pid="Y"/></g><g s:type="inputExt" transform="translate(710,447)" s:width="30" s:height="20" id="cell_start"><text x="15" y="-4" class="nodelabel cell_start" s:attribute="ref">start</text><s:alias val="$_inputExt_"/><path d="M0,0 L0,20 L15,20 L30,10 L15,0 Z" class="cell_start"/><g s:x="30" s:y="10" s:pid="Y"/></g><g s:type="inputExt" transform="translate(130,541.5)" s:width="30" s:height="20" id="cell_clk_12M"><text x="15" y="-4" class="nodelabel cell_clk_12M" s:attribute="ref">clk_12M</text><s:alias val="$_inputExt_"/><path d="M0,0 L0,20 L15,20 L30,10 L15,0 Z" class="cell_clk_12M"/><g s:x="30" s:y="10" s:pid="Y"/></g><g s:type="outputExt" transform="translate(1422,531.5)" s:width="30" s:height="20" id="cell_clk_pxl"><text x="15" y="-4" class="nodelabel cell_clk_pxl" s:attribute="ref">clk_pxl</text><s:alias val="$_outputExt_"/><path d="M30,0 L30,20 L15,20 L0,10 L15,0 Z" class="cell_clk_pxl"/><g s:x="0" s:y="10" s:pid="A"/></g><g s:type="outputExt" transform="translate(1422,22)" s:width="30" s:height="20" id="cell_clk_locked2"><text x="15" y="-4" class="nodelabel cell_clk_locked2" s:attribute="ref">clk_locked2</text><s:alias val="$_outputExt_"/><path d="M30,0 L30,20 L15,20 L0,10 L15,0 Z" class="cell_clk_locked2"/><g s:x="0" s:y="10" s:pid="A"/></g><g s:type="outputExt" transform="translate(1422,596.5)" s:width="30" s:height="20" id="cell_HSYNC1"><text x="15" y="-4" class="nodelabel cell_HSYNC1" s:attribute="ref">HSYNC1</text><s:alias val="$_outputExt_"/><path d="M30,0 L30,20 L15,20 L0,10 L15,0 Z" class="cell_HSYNC1"/><g s:x="0" s:y="10" s:pid="A"/></g><g s:type="outputExt" transform="translate(1422,661.5)" s:width="30" s:height="20" id="cell_VSYNC1"><text x="15" y="-4" class="nodelabel cell_VSYNC1" s:attribute="ref">VSYNC1</text><s:alias val="$_outputExt_"/><path d="M30,0 L30,20 L15,20 L0,10 L15,0 Z" class="cell_VSYNC1"/><g s:x="0" s:y="10" s:pid="A"/></g><g s:type="outputExt" transform="translate(80,22)" s:width="30" s:height="20" id="cell_led"><text x="15" y="-4" class="nodelabel cell_led" s:attribute="ref">led</text><s:alias val="$_outputExt_"/><path d="M30,0 L30,20 L15,20 L0,10 L15,0 Z" class="cell_led"/><g s:x="0" s:y="10" s:pid="A"/></g><g s:type="outputExt" transform="translate(80,87)" s:width="30" s:height="20" id="cell_led1"><text x="15" y="-4" class="nodelabel cell_led1" s:attribute="ref">led1</text><s:alias val="$_outputExt_"/><path d="M30,0 L30,20 L15,20 L0,10 L15,0 Z" class="cell_led1"/><g s:x="0" s:y="10" s:pid="A"/></g><g s:type="outputExt" transform="translate(1422,466.5)" s:width="30" s:height="20" id="cell_rgb"><text x="15" y="-4" class="nodelabel cell_rgb" s:attribute="ref">rgb</text><s:alias val="$_outputExt_"/><path d="M30,0 L30,20 L15,20 L0,10 L15,0 Z" class="cell_rgb"/><g s:x="0" s:y="10" s:pid="A"/></g><g s:type="constant" transform="translate(710,53)" s:width="30" s:height="20" id="cell_000000"><text x="15" y="-4" class="nodelabel cell_000000" s:attribute="ref">0x0</text><s:alias val="$_constant_"/><rect width="30" height="20" class="cell_000000"/><g s:x="31" s:y="10" s:pid="Y"/></g><g s:type="constant" transform="translate(710,118)" s:width="30" s:height="20" id="cell_111111"><text x="15" y="-4" class="nodelabel cell_111111" s:attribute="ref">0x3f</text><s:alias val="$_constant_"/><rect width="30" height="20" class="cell_111111"/><g s:x="31" s:y="10" s:pid="Y"/></g><g s:type="constant" transform="translate(1012,486.5)" s:width="30" s:height="20" id="cell_110000"><text x="15" y="-4" class="nodelabel cell_110000" s:attribute="ref">0x30</text><s:alias val="$_constant_"/><rect width="30" height="20" class="cell_110000"/><g s:x="31" s:y="10" s:pid="Y"/></g><g s:type="join" transform="translate(19,12)" s:width="4" s:height="40" id="cell_$join$,x,x,x,"><rect width="5" height="40" class="splitjoinBody" s:generic="body"/><s:alias val="$_join_"/><g s:x="5" s:y="20" s:pid="out"/><g transform="translate(0,10)" s:x="0" s:y="10" s:pid="in0"><text x="-3" y="-4" class="inputPortLabel">0</text></g></g><line x1="741" x2="987" y1="63" y2="63" class="net_61,62,63,64,65,66 width_6" style="stroke-width: 2"/><line x1="987" x2="987" y1="63" y2="108" class="net_61,62,63,64,65,66 width_6" style="stroke-width: 2"/><line x1="987" x2="1013.6666666666666" y1="108" y2="108" class="net_61,62,63,64,65,66 width_6" style="stroke-width: 2"/><line x1="741" x2="794" y1="63" y2="63" class="net_61,62,63,64,65,66 width_6" style="stroke-width: 2"/><line x1="794" x2="794" y1="63" y2="48" class="net_61,62,63,64,65,66 width_6" style="stroke-width: 2"/><line x1="794" x2="1191.5" y1="48" y2="48" class="net_61,62,63,64,65,66 width_6" style="stroke-width: 2"/><line x1="1191.5" x2="1191.5" y1="48" y2="466.5" class="net_61,62,63,64,65,66 width_6" style="stroke-width: 2"/><circle cx="794" cy="63" r="3" style="fill:#000" class="net_61,62,63,64,65,66 width_6"/><line x1="1191.5" x2="1216.5" y1="466.5" y2="466.5" class="net_61,62,63,64,65,66 width_6" style="stroke-width: 2"/><line x1="741" x2="1013.6666666666666" y1="128" y2="128" class="net_67,68,69,70,71,72 width_6" style="stroke-width: 2"/><line x1="934" x2="1026.6666666666665" y1="377" y2="377" class="net_16 width_1" style="stroke-width: 1"/><line x1="1026.6666666666665" x2="1026.6666666666665" y1="377" y2="136" class="net_16 width_1" style="stroke-width: 1"/><line x1="934" x2="987" y1="377" y2="377" class="net_16 width_1" style="stroke-width: 1"/><line x1="987" x2="987" y1="377" y2="148" class="net_16 width_1" style="stroke-width: 1"/><line x1="987" x2="610" y1="148" y2="148" class="net_16 width_1" style="stroke-width: 1"/><line x1="610" x2="610" y1="148" y2="178.5" class="net_16 width_1" style="stroke-width: 1"/><circle cx="987" cy="377" r="2" style="fill:#000" class="net_16 width_1"/><line x1="610" x2="710" y1="178.5" y2="178.5" class="net_16 width_1" style="stroke-width: 1"/><line x1="1039.1666666666665" x2="1092" y1="118" y2="118" class="net_17,18,19,20,21,22 width_6" style="stroke-width: 2"/><line x1="1092" x2="1092" y1="118" y2="476.5" class="net_17,18,19,20,21,22 width_6" style="stroke-width: 2"/><line x1="1092" x2="1117" y1="476.5" y2="476.5" class="net_17,18,19,20,21,22 width_6" style="stroke-width: 2"/><line x1="1043" x2="1117" y1="496.5" y2="496.5" class="net_73,74,75,76,77,78 width_6" style="stroke-width: 2"/><line x1="547" x2="610" y1="357" y2="357" class="net_23 width_1" style="stroke-width: 1"/><line x1="610" x2="610" y1="357" y2="530.5" class="net_23 width_1" style="stroke-width: 1"/><line x1="610" x2="1130" y1="530.5" y2="530.5" class="net_23 width_1" style="stroke-width: 1"/><circle cx="610" cy="357" r="2" style="fill:#000" class="net_23 width_1"/><line x1="1130" x2="1130" y1="530.5" y2="504.5" class="net_23 width_1" style="stroke-width: 1"/><line x1="547" x2="610" y1="357" y2="357" class="net_23 width_1" style="stroke-width: 1"/><line x1="610" x2="610" y1="357" y2="238.5" class="net_23 width_1" style="stroke-width: 1"/><line x1="610" x2="710" y1="238.5" y2="238.5" class="net_23 width_1" style="stroke-width: 1"/><line x1="1142.5" x2="1216.5" y1="486.5" y2="486.5" class="net_24,25,26,27,28,29 width_6" style="stroke-width: 2"/><line x1="281" x2="1229.5" y1="651.5" y2="651.5" class="net_30 width_1" style="stroke-width: 1"/><line x1="1229.5" x2="1229.5" y1="651.5" y2="494.5" class="net_30 width_1" style="stroke-width: 1"/><line x1="281" x2="368" y1="591.5" y2="591.5" class="net_6 width_1" style="stroke-width: 1"/><line x1="368" x2="368" y1="591.5" y2="541.5" class="net_6 width_1" style="stroke-width: 1"/><line x1="368" x2="600" y1="541.5" y2="541.5" class="net_6 width_1" style="stroke-width: 1"/><line x1="600" x2="600" y1="541.5" y2="519.5" class="net_6 width_1" style="stroke-width: 1"/><line x1="600" x2="1152.5" y1="519.5" y2="519.5" class="net_6 width_1" style="stroke-width: 1"/><line x1="1152.5" x2="1152.5" y1="519.5" y2="541.5" class="net_6 width_1" style="stroke-width: 1"/><line x1="1152.5" x2="1291" y1="541.5" y2="541.5" class="net_6 width_1" style="stroke-width: 1"/><line x1="1291" x2="1291" y1="541.5" y2="496.5" class="net_6 width_1" style="stroke-width: 1"/><circle cx="368" cy="541.5" r="2" style="fill:#000" class="net_6 width_1"/><circle cx="600" cy="541.5" r="2" style="fill:#000" class="net_6 width_1"/><circle cx="1152.5" cy="541.5" r="2" style="fill:#000" class="net_6 width_1"/><circle cx="1291" cy="541.5" r="2" style="fill:#000" class="net_6 width_1"/><line x1="1291" x2="1316" y1="496.5" y2="496.5" class="net_6 width_1" style="stroke-width: 1"/><line x1="281" x2="368" y1="591.5" y2="591.5" class="net_6 width_1" style="stroke-width: 1"/><line x1="368" x2="368" y1="591.5" y2="301" class="net_6 width_1" style="stroke-width: 1"/><line x1="368" x2="794" y1="301" y2="301" class="net_6 width_1" style="stroke-width: 1"/><line x1="794" x2="794" y1="301" y2="417" class="net_6 width_1" style="stroke-width: 1"/><circle cx="368" cy="301" r="2" style="fill:#000" class="net_6 width_1"/><line x1="794" x2="903" y1="417" y2="417" class="net_6 width_1" style="stroke-width: 1"/><line x1="281" x2="368" y1="591.5" y2="591.5" class="net_6 width_1" style="stroke-width: 1"/><line x1="368" x2="368" y1="591.5" y2="243.5" class="net_6 width_1" style="stroke-width: 1"/><line x1="368" x2="600" y1="243.5" y2="243.5" class="net_6 width_1" style="stroke-width: 1"/><line x1="600" x2="600" y1="243.5" y2="218.5" class="net_6 width_1" style="stroke-width: 1"/><line x1="600" x2="710" y1="218.5" y2="218.5" class="net_6 width_1" style="stroke-width: 1"/><line x1="281" x2="368" y1="591.5" y2="591.5" class="net_6 width_1" style="stroke-width: 1"/><line x1="368" x2="368" y1="591.5" y2="301" class="net_6 width_1" style="stroke-width: 1"/><line x1="368" x2="458" y1="301" y2="301" class="net_6 width_1" style="stroke-width: 1"/><line x1="458" x2="458" y1="301" y2="357" class="net_6 width_1" style="stroke-width: 1"/><circle cx="458" cy="301" r="2" style="fill:#000" class="net_6 width_1"/><line x1="458" x2="516" y1="357" y2="357" class="net_6 width_1" style="stroke-width: 1"/><line x1="281" x2="368" y1="591.5" y2="591.5" class="net_6 width_1" style="stroke-width: 1"/><line x1="368" x2="368" y1="591.5" y2="541.5" class="net_6 width_1" style="stroke-width: 1"/><line x1="368" x2="1422" y1="541.5" y2="541.5" class="net_6 width_1" style="stroke-width: 1"/><line x1="1242" x2="1316" y1="476.5" y2="476.5" class="net_31,32,33,34,35,36 width_6" style="stroke-width: 2"/><line x1="741" x2="814" y1="178.5" y2="178.5" class="net_37 width_1" style="stroke-width: 1"/><line x1="814" x2="814" y1="178.5" y2="377" class="net_37 width_1" style="stroke-width: 1"/><line x1="814" x2="903" y1="377" y2="377" class="net_37 width_1" style="stroke-width: 1"/><line x1="741" x2="804" y1="198.5" y2="198.5" class="net_38 width_1" style="stroke-width: 1"/><line x1="804" x2="804" y1="198.5" y2="397" class="net_38 width_1" style="stroke-width: 1"/><line x1="804" x2="903" y1="397" y2="397" class="net_38 width_1" style="stroke-width: 1"/><line x1="740" x2="903" y1="457" y2="457" class="net_4 width_1" style="stroke-width: 1"/><line x1="281" x2="378" y1="551.5" y2="551.5" class="net_41,42,43,44,45,46,47,48,49,50 width_10" style="stroke-width: 2"/><line x1="378" x2="378" y1="551.5" y2="488.5" class="net_41,42,43,44,45,46,47,48,49,50 width_10" style="stroke-width: 2"/><line x1="378" x2="794" y1="488.5" y2="488.5" class="net_41,42,43,44,45,46,47,48,49,50 width_10" style="stroke-width: 2"/><line x1="794" x2="794" y1="488.5" y2="477" class="net_41,42,43,44,45,46,47,48,49,50 width_10" style="stroke-width: 2"/><circle cx="378" cy="488.5" r="3" style="fill:#000" class="net_41,42,43,44,45,46,47,48,49,50 width_10"/><line x1="794" x2="903" y1="477" y2="477" class="net_41,42,43,44,45,46,47,48,49,50 width_10" style="stroke-width: 2"/><line x1="281" x2="378" y1="551.5" y2="551.5" class="net_41,42,43,44,45,46,47,48,49,50 width_10" style="stroke-width: 2"/><line x1="378" x2="378" y1="551.5" y2="258.5" class="net_41,42,43,44,45,46,47,48,49,50 width_10" style="stroke-width: 2"/><line x1="378" x2="710" y1="258.5" y2="258.5" class="net_41,42,43,44,45,46,47,48,49,50 width_10" style="stroke-width: 2"/><line x1="281" x2="378" y1="551.5" y2="551.5" class="net_41,42,43,44,45,46,47,48,49,50 width_10" style="stroke-width: 2"/><line x1="378" x2="378" y1="551.5" y2="451.5" class="net_41,42,43,44,45,46,47,48,49,50 width_10" style="stroke-width: 2"/><line x1="378" x2="448" y1="451.5" y2="451.5" class="net_41,42,43,44,45,46,47,48,49,50 width_10" style="stroke-width: 2"/><line x1="448" x2="448" y1="451.5" y2="417" class="net_41,42,43,44,45,46,47,48,49,50 width_10" style="stroke-width: 2"/><circle cx="378" cy="451.5" r="3" style="fill:#000" class="net_41,42,43,44,45,46,47,48,49,50 width_10"/><line x1="448" x2="516" y1="417" y2="417" class="net_41,42,43,44,45,46,47,48,49,50 width_10" style="stroke-width: 2"/><line x1="281" x2="388" y1="631.5" y2="631.5" class="net_51,52,53,54,55,56,57,58,59,60 width_10" style="stroke-width: 2"/><line x1="388" x2="388" y1="631.5" y2="508.5" class="net_51,52,53,54,55,56,57,58,59,60 width_10" style="stroke-width: 2"/><line x1="388" x2="794" y1="508.5" y2="508.5" class="net_51,52,53,54,55,56,57,58,59,60 width_10" style="stroke-width: 2"/><line x1="794" x2="794" y1="508.5" y2="497" class="net_51,52,53,54,55,56,57,58,59,60 width_10" style="stroke-width: 2"/><circle cx="388" cy="508.5" r="3" style="fill:#000" class="net_51,52,53,54,55,56,57,58,59,60 width_10"/><line x1="794" x2="903" y1="497" y2="497" class="net_51,52,53,54,55,56,57,58,59,60 width_10" style="stroke-width: 2"/><line x1="281" x2="388" y1="631.5" y2="631.5" class="net_51,52,53,54,55,56,57,58,59,60 width_10" style="stroke-width: 2"/><line x1="388" x2="388" y1="631.5" y2="278.5" class="net_51,52,53,54,55,56,57,58,59,60 width_10" style="stroke-width: 2"/><line x1="388" x2="710" y1="278.5" y2="278.5" class="net_51,52,53,54,55,56,57,58,59,60 width_10" style="stroke-width: 2"/><line x1="281" x2="388" y1="631.5" y2="631.5" class="net_51,52,53,54,55,56,57,58,59,60 width_10" style="stroke-width: 2"/><line x1="388" x2="388" y1="631.5" y2="471.5" class="net_51,52,53,54,55,56,57,58,59,60 width_10" style="stroke-width: 2"/><line x1="388" x2="458" y1="471.5" y2="471.5" class="net_51,52,53,54,55,56,57,58,59,60 width_10" style="stroke-width: 2"/><line x1="458" x2="458" y1="471.5" y2="437" class="net_51,52,53,54,55,56,57,58,59,60 width_10" style="stroke-width: 2"/><circle cx="388" cy="471.5" r="3" style="fill:#000" class="net_51,52,53,54,55,56,57,58,59,60 width_10"/><line x1="458" x2="516" y1="437" y2="437" class="net_51,52,53,54,55,56,57,58,59,60 width_10" style="stroke-width: 2"/><line x1="438" x2="448" y1="332" y2="332" class="net_2 width_1" style="stroke-width: 1"/><line x1="448" x2="448" y1="332" y2="377" class="net_2 width_1" style="stroke-width: 1"/><line x1="448" x2="516" y1="377" y2="377" class="net_2 width_1" style="stroke-width: 1"/><line x1="438" x2="516" y1="397" y2="397" class="net_3 width_1" style="stroke-width: 1"/><line x1="160" x2="250" y1="551.5" y2="551.5" class="net_5 width_1" style="stroke-width: 1"/><line x1="281" x2="358" y1="571.5" y2="571.5" class="net_7 width_1" style="stroke-width: 1"/><line x1="358" x2="358" y1="571.5" y2="32" class="net_7 width_1" style="stroke-width: 1"/><line x1="358" x2="1422" y1="32" y2="32" class="net_7 width_1" style="stroke-width: 1"/><line x1="281" x2="398" y1="611.5" y2="611.5" class="net_8 width_1" style="stroke-width: 1"/><line x1="398" x2="398" y1="611.5" y2="606.5" class="net_8 width_1" style="stroke-width: 1"/><line x1="398" x2="1422" y1="606.5" y2="606.5" class="net_8 width_1" style="stroke-width: 1"/><line x1="281" x2="1422" y1="671.5" y2="671.5" class="net_9 width_1" style="stroke-width: 1"/><line x1="55" x2="80" y1="32" y2="32" class="net_z width_1" style="stroke-width: 1"/><line x1="55" x2="55" y1="32" y2="97" class="net_z width_1" style="stroke-width: 1"/><line x1="55" x2="80" y1="97" y2="97" class="net_z width_1" style="stroke-width: 1"/><line x1="1348" x2="1422" y1="476.5" y2="476.5" class="net_10,11,12,13,14,15 width_6" style="stroke-width: 2"/><rect x="1079" y="43" width="16" height="9" class="net_61,62,63,64,65,66 width_6 busLabel_6" style="fill: white; stroke: none"/><text x="1078" y="51" class="net_61,62,63,64,65,66 width_6 busLabel_6">/6/</text><rect x="1079" y="43" width="16" height="9" class="net_61,62,63,64,65,66 width_6 busLabel_6" style="fill: white; stroke: none"/><text x="1078" y="51" class="net_61,62,63,64,65,66 width_6 busLabel_6">/6/</text><rect x="899.5" y="123" width="16" height="9" class="net_67,68,69,70,71,72 width_6 busLabel_6" style="fill: white; stroke: none"/><text x="898.5" y="131" class="net_67,68,69,70,71,72 width_6 busLabel_6">/6/</text><rect x="1079" y="113" width="16" height="9" class="net_17,18,19,20,21,22 width_6 busLabel_6" style="fill: white; stroke: none"/><text x="1078" y="121" class="net_17,18,19,20,21,22 width_6 busLabel_6">/6/</text><rect x="1079" y="491.5" width="16" height="9" class="net_73,74,75,76,77,78 width_6 busLabel_6" style="fill: white; stroke: none"/><text x="1078" y="499.5" class="net_73,74,75,76,77,78 width_6 busLabel_6">/6/</text><rect x="1178.5" y="481.5" width="16" height="9" class="net_24,25,26,27,28,29 width_6 busLabel_6" style="fill: white; stroke: none"/><text x="1177.5" y="489.5" class="net_24,25,26,27,28,29 width_6 busLabel_6">/6/</text><rect x="1278" y="471.5" width="16" height="9" class="net_31,32,33,34,35,36 width_6 busLabel_6" style="fill: white; stroke: none"/><text x="1277" y="479.5" class="net_31,32,33,34,35,36 width_6 busLabel_6">/6/</text><rect x="422" y="446.5" width="22" height="9" class="net_41,42,43,44,45,46,47,48,49,50 width_10 busLabel_10" style="fill: white; stroke: none"/><text x="421" y="454.5" class="net_41,42,43,44,45,46,47,48,49,50 width_10 busLabel_10">/10/</text><rect x="422" y="446.5" width="22" height="9" class="net_41,42,43,44,45,46,47,48,49,50 width_10 busLabel_10" style="fill: white; stroke: none"/><text x="421" y="454.5" class="net_41,42,43,44,45,46,47,48,49,50 width_10 busLabel_10">/10/</text><rect x="422" y="446.5" width="22" height="9" class="net_41,42,43,44,45,46,47,48,49,50 width_10 busLabel_10" style="fill: white; stroke: none"/><text x="421" y="454.5" class="net_41,42,43,44,45,46,47,48,49,50 width_10 busLabel_10">/10/</text><rect x="422" y="466.5" width="22" height="9" class="net_51,52,53,54,55,56,57,58,59,60 width_10 busLabel_10" style="fill: white; stroke: none"/><text x="421" y="474.5" class="net_51,52,53,54,55,56,57,58,59,60 width_10 busLabel_10">/10/</text><rect x="422" y="466.5" width="22" height="9" class="net_51,52,53,54,55,56,57,58,59,60 width_10 busLabel_10" style="fill: white; stroke: none"/><text x="421" y="474.5" class="net_51,52,53,54,55,56,57,58,59,60 width_10 busLabel_10">/10/</text><rect x="422" y="466.5" width="22" height="9" class="net_51,52,53,54,55,56,57,58,59,60 width_10 busLabel_10" style="fill: white; stroke: none"/><text x="421" y="474.5" class="net_51,52,53,54,55,56,57,58,59,60 width_10 busLabel_10">/10/</text><rect x="1384" y="471.5" width="16" height="9" class="net_10,11,12,13,14,15 width_6 busLabel_6" style="fill: white; stroke: none"/><text x="1383" y="479.5" class="net_10,11,12,13,14,15 width_6 busLabel_6">/6/</text></svg>