<svg xmlns="http://www.w3.org/2000/svg" xmlns:xlink="http://www.w3.org/1999/xlink" xmlns:s="https://github.com/nturley/netlistsvg" width="672" height="386"><style>svg {
  stroke:#000;
  fill:none;
}
text {
  fill:#000;
  stroke:none;
  font-size:10px;
  font-weight: bold;
  font-family: "Courier New", monospace;
}
line {
    stroke-linecap: round;
}
.nodelabel {
  text-anchor: middle;
}
.inputPortLabel {
  text-anchor: end;
}
.splitjoinBody {
  fill:#000;
}</style><g s:type="gt" transform="translate(226,72)" s:width="25" s:height="25" id="cell_\39"><s:alias val="$gt"/><circle r="12" cx="12" cy="12" class="cell_\39"/><line x1="8" x2="19" y1="7" y2="12" class="cell_\39"/><line x1="8" x2="19" y1="17" y2="12" class="cell_\39"/><g s:x="2" s:y="5" s:pid="A"/><g s:x="2" s:y="20" s:pid="B"/><g s:x="25" s:y="12.5" s:pid="Y"/></g><g s:type="lt" transform="translate(226,142)" s:width="25" s:height="25" id="cell_\41"><s:alias val="$lt"/><circle r="12.5" cx="12.5" cy="12.5" class="cell_\41"/><line x1="6" x2="17" y1="12" y2="7" class="cell_\41"/><line x1="6" x2="17" y1="12" y2="17" class="cell_\41"/><g s:x="2" s:y="5" s:pid="A"/><g s:x="2" s:y="20" s:pid="B"/><g s:x="25" s:y="12.5" s:pid="Y"/></g><g s:type="and" transform="translate(290,134.5)" s:width="30" s:height="25" id="cell_\42"><s:alias val="$and"/><s:alias val="$logic_and"/><s:alias val="$_AND_"/><path d="M0,0 L0,25 L15,25 A15 12.5 0 0 0 15,0 Z" class="cell_\42"/><g s:x="0" s:y="5" s:pid="A"/><g s:x="0" s:y="20" s:pid="B"/><g s:x="30" s:y="12.5" s:pid="Y"/></g><g s:type="gt" transform="translate(291.66666666666663,252)" s:width="25" s:height="25" id="cell_\44"><s:alias val="$gt"/><circle r="12" cx="12" cy="12" class="cell_\44"/><line x1="8" x2="19" y1="7" y2="12" class="cell_\44"/><line x1="8" x2="19" y1="17" y2="12" class="cell_\44"/><g s:x="2" s:y="5" s:pid="A"/><g s:x="2" s:y="20" s:pid="B"/><g s:x="25" s:y="12.5" s:pid="Y"/></g><g s:type="and" transform="translate(355,244.5)" s:width="30" s:height="25" id="cell_\45"><s:alias val="$and"/><s:alias val="$logic_and"/><s:alias val="$_AND_"/><path d="M0,0 L0,25 L15,25 A15 12.5 0 0 0 15,0 Z" class="cell_\45"/><g s:x="0" s:y="5" s:pid="A"/><g s:x="0" s:y="20" s:pid="B"/><g s:x="30" s:y="12.5" s:pid="Y"/></g><g s:type="lt" transform="translate(356.6666666666667,329)" s:width="25" s:height="25" id="cell_\47"><s:alias val="$lt"/><circle r="12.5" cx="12.5" cy="12.5" class="cell_\47"/><line x1="6" x2="17" y1="12" y2="7" class="cell_\47"/><line x1="6" x2="17" y1="12" y2="17" class="cell_\47"/><g s:x="2" s:y="5" s:pid="A"/><g s:x="2" s:y="20" s:pid="B"/><g s:x="25" s:y="12.5" s:pid="Y"/></g><g s:type="and" transform="translate(420.3333333333333,321.5)" s:width="30" s:height="25" id="cell_\48"><s:alias val="$and"/><s:alias val="$logic_and"/><s:alias val="$_AND_"/><path d="M0,0 L0,25 L15,25 A15 12.5 0 0 0 15,0 Z" class="cell_\48"/><g s:x="0" s:y="5" s:pid="A"/><g s:x="0" s:y="20" s:pid="B"/><g s:x="30" s:y="12.5" s:pid="Y"/></g><g s:type="mux" transform="translate(489.3333333333333,246.5)" s:width="20" s:height="40" id="cell_\51"><s:alias val="$pmux"/><s:alias val="$mux"/><s:alias val="$_MUX_"/><path d="M0,0 L20,10 L20,30 L0,40 Z" class="cell_\51"/><text x="5" y="32" class="nodelabel cell_\51" s:attribute="">1</text><text x="5" y="13" class="nodelabel cell_\51" s:attribute="">0</text><g s:x="0" s:y="10" s:pid="A"/><g s:x="0" s:y="30" s:pid="B"/><g s:x="10" s:y="35" s:pid="S"/><g s:x="20" s:y="20" s:pid="Y"/></g><g s:type="dff" transform="translate(552,334)" s:width="30" s:height="40" id="cell_\967"><s:alias val="$dff"/><s:alias val="$_DFF_"/><s:alias val="$_DFF_P_"/><s:alias val="dff-bus"/><s:alias val="$dff-bus"/><s:alias val="$_DFF_-bus"/><s:alias val="$_DFF_P_-bus"/><rect width="30" height="40" x="0" y="0" class="cell_\967"/><path d="M0,35 L5,30 L0,25" class="cell_\967"/><g s:x="31" s:y="10" s:pid="Q"/><g s:x="-1" s:y="30" s:pid="CLK"/><g s:x="-1" s:y="30" s:pid="C"/><g s:x="-1" s:y="10" s:pid="D"/></g><g s:type="inputExt" transform="translate(486,354)" s:width="30" s:height="20" id="cell_clk"><text x="15" y="-4" class="nodelabel cell_clk" s:attribute="ref">clk</text><s:alias val="$_inputExt_"/><path d="M0,0 L0,20 L15,20 L30,10 L15,0 Z" class="cell_clk"/><g s:x="30" s:y="10" s:pid="Y"/></g><g s:type="inputExt" transform="translate(92,87)" s:width="30" s:height="20" id="cell_row"><text x="15" y="-4" class="nodelabel cell_row" s:attribute="ref">row</text><s:alias val="$_inputExt_"/><path d="M0,0 L0,20 L15,20 L30,10 L15,0 Z" class="cell_row"/><g s:x="30" s:y="10" s:pid="Y"/></g><g s:type="inputExt" transform="translate(158,278)" s:width="30" s:height="20" id="cell_col"><text x="15" y="-4" class="nodelabel cell_col" s:attribute="ref">col</text><s:alias val="$_inputExt_"/><path d="M0,0 L0,20 L15,20 L30,10 L15,0 Z" class="cell_col"/><g s:x="30" s:y="10" s:pid="Y"/></g><g s:type="inputExt" transform="translate(12,22)" s:width="30" s:height="20" id="cell_off_enable"><text x="15" y="-4" class="nodelabel cell_off_enable" s:attribute="ref">off_enable</text><s:alias val="$_inputExt_"/><path d="M0,0 L0,20 L15,20 L30,10 L15,0 Z" class="cell_off_enable"/><g s:x="30" s:y="10" s:pid="Y"/></g><g s:type="outputExt" transform="translate(618,334)" s:width="30" s:height="20" id="cell_display"><text x="15" y="-4" class="nodelabel cell_display" s:attribute="ref">display</text><s:alias val="$_outputExt_"/><path d="M30,0 L30,20 L15,20 L0,10 L15,0 Z" class="cell_display"/><g s:x="0" s:y="10" s:pid="A"/></g><g s:type="constant" transform="translate(92,22)" s:width="30" s:height="20" id="cell_111111001"><text x="15" y="-4" class="nodelabel cell_111111001" s:attribute="ref">0x1f9</text><s:alias val="$_constant_"/><rect width="30" height="20" class="cell_111111001"/><g s:x="31" s:y="10" s:pid="Y"/></g><g s:type="constant" transform="translate(92,152)" s:width="30" s:height="20" id="cell_1000100001"><text x="15" y="-4" class="nodelabel cell_1000100001" s:attribute="ref">0x221</text><s:alias val="$_constant_"/><rect width="30" height="20" class="cell_1000100001"/><g s:x="31" s:y="10" s:pid="Y"/></g><g s:type="constant" transform="translate(158,213)" s:width="30" s:height="20" id="cell_101"><text x="15" y="-4" class="nodelabel cell_101" s:attribute="ref">101</text><s:alias val="$_constant_"/><rect width="30" height="20" class="cell_101"/><g s:x="31" s:y="10" s:pid="Y"/></g><g s:type="constant" transform="translate(224,339)" s:width="30" s:height="20" id="cell_11001"><text x="15" y="-4" class="nodelabel cell_11001" s:attribute="ref">0x19</text><s:alias val="$_constant_"/><rect width="30" height="20" class="cell_11001"/><g s:x="31" s:y="10" s:pid="Y"/></g><g s:type="constant" transform="translate(420,201.5)" s:width="30" s:height="20" id="cell_0"><text x="15" y="-4" class="nodelabel cell_0" s:attribute="ref">0</text><s:alias val="$_constant_"/><rect width="30" height="20" class="cell_0"/><g s:x="31" s:y="10" s:pid="Y"/></g><g s:type="constant" transform="translate(420,266.5)" s:width="30" s:height="20" id="cell_1"><text x="15" y="-4" class="nodelabel cell_1" s:attribute="ref">1</text><s:alias val="$_constant_"/><rect width="30" height="20" class="cell_1"/><g s:x="31" s:y="10" s:pid="Y"/></g><line x1="122" x2="133" y1="97" y2="97" class="net_3,4,5,6,7,8,9,10,11,12 width_10" style="stroke-width: 2"/><line x1="133" x2="133" y1="97" y2="77" class="net_3,4,5,6,7,8,9,10,11,12 width_10" style="stroke-width: 2"/><circle cx="133" cy="97" r="3" style="fill:#000" class="net_3,4,5,6,7,8,9,10,11,12 width_10"/><line x1="133" x2="228" y1="77" y2="77" class="net_3,4,5,6,7,8,9,10,11,12 width_10" style="stroke-width: 2"/><line x1="122" x2="199" y1="97" y2="97" class="net_3,4,5,6,7,8,9,10,11,12 width_10" style="stroke-width: 2"/><line x1="199" x2="199" y1="97" y2="147" class="net_3,4,5,6,7,8,9,10,11,12 width_10" style="stroke-width: 2"/><line x1="199" x2="228" y1="147" y2="147" class="net_3,4,5,6,7,8,9,10,11,12 width_10" style="stroke-width: 2"/><line x1="123" x2="199" y1="32" y2="32" class="net_33,34,35,36,37,38,39,40,41 width_9" style="stroke-width: 2"/><line x1="199" x2="199" y1="32" y2="92" class="net_33,34,35,36,37,38,39,40,41 width_9" style="stroke-width: 2"/><line x1="199" x2="228" y1="92" y2="92" class="net_33,34,35,36,37,38,39,40,41 width_9" style="stroke-width: 2"/><line x1="123" x2="228" y1="162" y2="162" class="net_42,43,44,45,46,47,48,49,50,51 width_10" style="stroke-width: 2"/><line x1="251" x2="265" y1="84.5" y2="84.5" class="net_25 width_1" style="stroke-width: 1"/><line x1="265" x2="265" y1="84.5" y2="139.5" class="net_25 width_1" style="stroke-width: 1"/><line x1="265" x2="290" y1="139.5" y2="139.5" class="net_25 width_1" style="stroke-width: 1"/><line x1="251" x2="290" y1="154.5" y2="154.5" class="net_26 width_1" style="stroke-width: 1"/><line x1="188" x2="199" y1="288" y2="288" class="net_13,14,15,16,17,18,19,20,21,22 width_10" style="stroke-width: 2"/><line x1="199" x2="199" y1="288" y2="257" class="net_13,14,15,16,17,18,19,20,21,22 width_10" style="stroke-width: 2"/><circle cx="199" cy="288" r="3" style="fill:#000" class="net_13,14,15,16,17,18,19,20,21,22 width_10"/><line x1="199" x2="293.66666666666663" y1="257" y2="257" class="net_13,14,15,16,17,18,19,20,21,22 width_10" style="stroke-width: 2"/><line x1="188" x2="330" y1="288" y2="288" class="net_13,14,15,16,17,18,19,20,21,22 width_10" style="stroke-width: 2"/><line x1="330" x2="330" y1="288" y2="334" class="net_13,14,15,16,17,18,19,20,21,22 width_10" style="stroke-width: 2"/><line x1="330" x2="358.6666666666667" y1="334" y2="334" class="net_13,14,15,16,17,18,19,20,21,22 width_10" style="stroke-width: 2"/><line x1="189" x2="265" y1="223" y2="223" class="net_52,53,54 width_3" style="stroke-width: 2"/><line x1="265" x2="265" y1="223" y2="272" class="net_52,53,54 width_3" style="stroke-width: 2"/><line x1="265" x2="293.66666666666663" y1="272" y2="272" class="net_52,53,54 width_3" style="stroke-width: 2"/><line x1="320" x2="330" y1="147" y2="147" class="net_27 width_1" style="stroke-width: 1"/><line x1="330" x2="330" y1="147" y2="249.5" class="net_27 width_1" style="stroke-width: 1"/><line x1="330" x2="355" y1="249.5" y2="249.5" class="net_27 width_1" style="stroke-width: 1"/><line x1="316.66666666666663" x2="355" y1="264.5" y2="264.5" class="net_28 width_1" style="stroke-width: 1"/><line x1="255" x2="358.6666666666667" y1="349" y2="349" class="net_55,56,57,58,59 width_5" style="stroke-width: 2"/><line x1="385" x2="395" y1="257" y2="257" class="net_29 width_1" style="stroke-width: 1"/><line x1="395" x2="395" y1="257" y2="326.5" class="net_29 width_1" style="stroke-width: 1"/><line x1="395" x2="420.3333333333333" y1="326.5" y2="326.5" class="net_29 width_1" style="stroke-width: 1"/><line x1="381.6666666666667" x2="420.3333333333333" y1="341.5" y2="341.5" class="net_30 width_1" style="stroke-width: 1"/><line x1="451" x2="461" y1="211.5" y2="211.5" class="net_60 width_1" style="stroke-width: 1"/><line x1="461" x2="461" y1="211.5" y2="256.5" class="net_60 width_1" style="stroke-width: 1"/><line x1="461" x2="489.3333333333333" y1="256.5" y2="256.5" class="net_60 width_1" style="stroke-width: 1"/><line x1="451" x2="489.3333333333333" y1="276.5" y2="276.5" class="net_61 width_1" style="stroke-width: 1"/><line x1="450.3333333333333" x2="499.3333333333333" y1="334" y2="334" class="net_31 width_1" style="stroke-width: 1"/><line x1="499.3333333333333" x2="499.3333333333333" y1="334" y2="281.5" class="net_31 width_1" style="stroke-width: 1"/><line x1="516" x2="551" y1="364" y2="364" class="net_2 width_1" style="stroke-width: 1"/><line x1="509.3333333333333" x2="526" y1="266.5" y2="266.5" class="net_32 width_1" style="stroke-width: 1"/><line x1="526" x2="526" y1="266.5" y2="344" class="net_32 width_1" style="stroke-width: 1"/><line x1="526" x2="551" y1="344" y2="344" class="net_32 width_1" style="stroke-width: 1"/><line x1="583" x2="618" y1="344" y2="344" class="net_24 width_1" style="stroke-width: 1"/><rect x="172.5" y="92" width="22" height="9" class="net_3,4,5,6,7,8,9,10,11,12 width_10 busLabel_10" style="fill: white; stroke: none"/><text x="171.5" y="100" class="net_3,4,5,6,7,8,9,10,11,12 width_10 busLabel_10">/10/</text><rect x="172.5" y="92" width="22" height="9" class="net_3,4,5,6,7,8,9,10,11,12 width_10 busLabel_10" style="fill: white; stroke: none"/><text x="171.5" y="100" class="net_3,4,5,6,7,8,9,10,11,12 width_10 busLabel_10">/10/</text><rect x="172.5" y="27" width="16" height="9" class="net_33,34,35,36,37,38,39,40,41 width_9 busLabel_9" style="fill: white; stroke: none"/><text x="171.5" y="35" class="net_33,34,35,36,37,38,39,40,41 width_9 busLabel_9">/9/</text><rect x="172.5" y="157" width="22" height="9" class="net_42,43,44,45,46,47,48,49,50,51 width_10 busLabel_10" style="fill: white; stroke: none"/><text x="171.5" y="165" class="net_42,43,44,45,46,47,48,49,50,51 width_10 busLabel_10">/10/</text><rect x="238.5" y="283" width="22" height="9" class="net_13,14,15,16,17,18,19,20,21,22 width_10 busLabel_10" style="fill: white; stroke: none"/><text x="237.5" y="291" class="net_13,14,15,16,17,18,19,20,21,22 width_10 busLabel_10">/10/</text><rect x="238.5" y="283" width="22" height="9" class="net_13,14,15,16,17,18,19,20,21,22 width_10 busLabel_10" style="fill: white; stroke: none"/><text x="237.5" y="291" class="net_13,14,15,16,17,18,19,20,21,22 width_10 busLabel_10">/10/</text><rect x="238.5" y="218" width="16" height="9" class="net_52,53,54 width_3 busLabel_3" style="fill: white; stroke: none"/><text x="237.5" y="226" class="net_52,53,54 width_3 busLabel_3">/3/</text><rect x="304" y="344" width="16" height="9" class="net_55,56,57,58,59 width_5 busLabel_5" style="fill: white; stroke: none"/><text x="303" y="352" class="net_55,56,57,58,59 width_5 busLabel_5">/5/</text></svg>