<svg xmlns="http://www.w3.org/2000/svg" xmlns:xlink="http://www.w3.org/1999/xlink" xmlns:s="https://github.com/nturley/netlistsvg" width="798" height="969"><style>svg {
  stroke:#000;
  fill:none;
}
text {
  fill:#000;
  stroke:none;
  font-size:10px;
  font-weight: bold;
  font-family: "Courier New", monospace;
}
line {
    stroke-linecap: round;
}
.nodelabel {
  text-anchor: middle;
}
.inputPortLabel {
  text-anchor: end;
}
.splitjoinBody {
  fill:#000;
}</style><g s:type="gt" transform="translate(337.6666666666667,575.5)" s:width="25" s:height="25" id="cell_\10"><s:alias val="$gt"/><circle r="12" cx="12" cy="12" class="cell_\10"/><line x1="8" x2="19" y1="7" y2="12" class="cell_\10"/><line x1="8" x2="19" y1="17" y2="12" class="cell_\10"/><g s:x="2" s:y="5" s:pid="A"/><g s:x="2" s:y="20" s:pid="B"/><g s:x="25" s:y="12.5" s:pid="Y"/></g><g s:type="lt" transform="translate(337.6666666666667,685.5)" s:width="25" s:height="25" id="cell_\12"><s:alias val="$lt"/><circle r="12.5" cx="12.5" cy="12.5" class="cell_\12"/><line x1="6" x2="17" y1="12" y2="7" class="cell_\12"/><line x1="6" x2="17" y1="12" y2="17" class="cell_\12"/><g s:x="2" s:y="5" s:pid="A"/><g s:x="2" s:y="20" s:pid="B"/><g s:x="25" s:y="12.5" s:pid="Y"/></g><g s:type="and" transform="translate(417,678)" s:width="30" s:height="25" id="cell_\13"><s:alias val="$and"/><s:alias val="$logic_and"/><s:alias val="$_AND_"/><path d="M0,0 L0,25 L15,25 A15 12.5 0 0 0 15,0 Z" class="cell_\13"/><g s:x="0" s:y="5" s:pid="A"/><g s:x="0" s:y="20" s:pid="B"/><g s:x="30" s:y="12.5" s:pid="Y"/></g><g s:type="gt" transform="translate(418.6666666666667,738)" s:width="25" s:height="25" id="cell_\15"><s:alias val="$gt"/><circle r="12" cx="12" cy="12" class="cell_\15"/><line x1="8" x2="19" y1="7" y2="12" class="cell_\15"/><line x1="8" x2="19" y1="17" y2="12" class="cell_\15"/><g s:x="2" s:y="5" s:pid="A"/><g s:x="2" s:y="20" s:pid="B"/><g s:x="25" s:y="12.5" s:pid="Y"/></g><g s:type="and" transform="translate(482,730.5)" s:width="30" s:height="25" id="cell_\16"><s:alias val="$and"/><s:alias val="$logic_and"/><s:alias val="$_AND_"/><path d="M0,0 L0,25 L15,25 A15 12.5 0 0 0 15,0 Z" class="cell_\16"/><g s:x="0" s:y="5" s:pid="A"/><g s:x="0" s:y="20" s:pid="B"/><g s:x="30" s:y="12.5" s:pid="Y"/></g><g s:type="gt" transform="translate(264,319.5)" s:width="25" s:height="25" id="cell_\18"><s:alias val="$gt"/><circle r="12" cx="12" cy="12" class="cell_\18"/><line x1="8" x2="19" y1="7" y2="12" class="cell_\18"/><line x1="8" x2="19" y1="17" y2="12" class="cell_\18"/><g s:x="2" s:y="5" s:pid="A"/><g s:x="2" s:y="20" s:pid="B"/><g s:x="25" s:y="12.5" s:pid="Y"/></g><g s:type="lt" transform="translate(264,429.5)" s:width="25" s:height="25" id="cell_\20"><s:alias val="$lt"/><circle r="12.5" cx="12.5" cy="12.5" class="cell_\20"/><line x1="6" x2="17" y1="12" y2="7" class="cell_\20"/><line x1="6" x2="17" y1="12" y2="17" class="cell_\20"/><g s:x="2" s:y="5" s:pid="A"/><g s:x="2" s:y="20" s:pid="B"/><g s:x="25" s:y="12.5" s:pid="Y"/></g><g s:type="and" transform="translate(336,422)" s:width="30" s:height="25" id="cell_\21"><s:alias val="$and"/><s:alias val="$logic_and"/><s:alias val="$_AND_"/><path d="M0,0 L0,25 L15,25 A15 12.5 0 0 0 15,0 Z" class="cell_\21"/><g s:x="0" s:y="5" s:pid="A"/><g s:x="0" s:y="20" s:pid="B"/><g s:x="30" s:y="12.5" s:pid="Y"/></g><g s:type="gt" transform="translate(337.6666666666667,509.5)" s:width="25" s:height="25" id="cell_\23"><s:alias val="$gt"/><circle r="12" cx="12" cy="12" class="cell_\23"/><line x1="8" x2="19" y1="7" y2="12" class="cell_\23"/><line x1="8" x2="19" y1="17" y2="12" class="cell_\23"/><g s:x="2" s:y="5" s:pid="A"/><g s:x="2" s:y="20" s:pid="B"/><g s:x="25" s:y="12.5" s:pid="Y"/></g><g s:type="and" transform="translate(417,502)" s:width="30" s:height="25" id="cell_\24"><s:alias val="$and"/><s:alias val="$logic_and"/><s:alias val="$_AND_"/><path d="M0,0 L0,25 L15,25 A15 12.5 0 0 0 15,0 Z" class="cell_\24"/><g s:x="0" s:y="5" s:pid="A"/><g s:x="0" s:y="20" s:pid="B"/><g s:x="30" s:y="12.5" s:pid="Y"/></g><g s:type="gt" transform="translate(198,80.5)" s:width="25" s:height="25" id="cell_\26"><s:alias val="$gt"/><circle r="12" cx="12" cy="12" class="cell_\26"/><line x1="8" x2="19" y1="7" y2="12" class="cell_\26"/><line x1="8" x2="19" y1="17" y2="12" class="cell_\26"/><g s:x="2" s:y="5" s:pid="A"/><g s:x="2" s:y="20" s:pid="B"/><g s:x="25" s:y="12.5" s:pid="Y"/></g><g s:type="lt" transform="translate(198,145.5)" s:width="25" s:height="25" id="cell_\28"><s:alias val="$lt"/><circle r="12.5" cx="12.5" cy="12.5" class="cell_\28"/><line x1="6" x2="17" y1="12" y2="7" class="cell_\28"/><line x1="6" x2="17" y1="12" y2="17" class="cell_\28"/><g s:x="2" s:y="5" s:pid="A"/><g s:x="2" s:y="20" s:pid="B"/><g s:x="25" s:y="12.5" s:pid="Y"/></g><g s:type="and" transform="translate(262.33333333333337,138)" s:width="30" s:height="25" id="cell_\29"><s:alias val="$and"/><s:alias val="$logic_and"/><s:alias val="$_AND_"/><path d="M0,0 L0,25 L15,25 A15 12.5 0 0 0 15,0 Z" class="cell_\29"/><g s:x="0" s:y="5" s:pid="A"/><g s:x="0" s:y="20" s:pid="B"/><g s:x="30" s:y="12.5" s:pid="Y"/></g><g s:type="gt" transform="translate(264,209.5)" s:width="25" s:height="25" id="cell_\31"><s:alias val="$gt"/><circle r="12" cx="12" cy="12" class="cell_\31"/><line x1="8" x2="19" y1="7" y2="12" class="cell_\31"/><line x1="8" x2="19" y1="17" y2="12" class="cell_\31"/><g s:x="2" s:y="5" s:pid="A"/><g s:x="2" s:y="20" s:pid="B"/><g s:x="25" s:y="12.5" s:pid="Y"/></g><g s:type="and" transform="translate(336,202)" s:width="30" s:height="25" id="cell_\32"><s:alias val="$and"/><s:alias val="$logic_and"/><s:alias val="$_AND_"/><path d="M0,0 L0,25 L15,25 A15 12.5 0 0 0 15,0 Z" class="cell_\32"/><g s:x="0" s:y="5" s:pid="A"/><g s:x="0" s:y="20" s:pid="B"/><g s:x="30" s:y="12.5" s:pid="Y"/></g><g s:type="mux" transform="translate(420.3333333333333,23)" s:width="20" s:height="40" id="cell_\35"><s:alias val="$pmux"/><s:alias val="$mux"/><s:alias val="$_MUX_"/><path d="M0,0 L20,10 L20,30 L0,40 Z" class="cell_\35"/><text x="5" y="32" class="nodelabel cell_\35" s:attribute="">1</text><text x="5" y="13" class="nodelabel cell_\35" s:attribute="">0</text><g s:x="0" s:y="10" s:pid="A"/><g s:x="0" s:y="30" s:pid="B"/><g s:x="10" s:y="35" s:pid="S"/><g s:x="20" s:y="20" s:pid="Y"/></g><g s:type="mux" transform="translate(485.3333333333333,33)" s:width="20" s:height="40" id="cell_\37"><s:alias val="$pmux"/><s:alias val="$mux"/><s:alias val="$_MUX_"/><path d="M0,0 L20,10 L20,30 L0,40 Z" class="cell_\37"/><text x="5" y="32" class="nodelabel cell_\37" s:attribute="">1</text><text x="5" y="13" class="nodelabel cell_\37" s:attribute="">0</text><g s:x="0" s:y="10" s:pid="A"/><g s:x="0" s:y="30" s:pid="B"/><g s:x="10" s:y="35" s:pid="S"/><g s:x="20" s:y="20" s:pid="Y"/></g><g s:type="mux" transform="translate(550.3333333333334,63)" s:width="20" s:height="40" id="cell_\39"><s:alias val="$pmux"/><s:alias val="$mux"/><s:alias val="$_MUX_"/><path d="M0,0 L20,10 L20,30 L0,40 Z" class="cell_\39"/><text x="5" y="32" class="nodelabel cell_\39" s:attribute="">1</text><text x="5" y="13" class="nodelabel cell_\39" s:attribute="">0</text><g s:x="0" s:y="10" s:pid="A"/><g s:x="0" s:y="30" s:pid="B"/><g s:x="10" s:y="35" s:pid="S"/><g s:x="20" s:y="20" s:pid="Y"/></g><g s:type="mux" transform="translate(615.3333333333334,53)" s:width="20" s:height="40" id="cell_\41"><s:alias val="$pmux"/><s:alias val="$mux"/><s:alias val="$_MUX_"/><path d="M0,0 L20,10 L20,30 L0,40 Z" class="cell_\41"/><text x="5" y="32" class="nodelabel cell_\41" s:attribute="">1</text><text x="5" y="13" class="nodelabel cell_\41" s:attribute="">0</text><g s:x="0" s:y="10" s:pid="A"/><g s:x="0" s:y="30" s:pid="B"/><g s:x="10" s:y="35" s:pid="S"/><g s:x="20" s:y="20" s:pid="Y"/></g><g s:type="dff" transform="translate(678,917)" s:width="30" s:height="40" id="cell_\44"><s:alias val="$dff"/><s:alias val="$_DFF_"/><s:alias val="$_DFF_P_"/><s:alias val="dff-bus"/><s:alias val="$dff-bus"/><s:alias val="$_DFF_-bus"/><s:alias val="$_DFF_P_-bus"/><rect width="30" height="40" x="0" y="0" class="cell_\44"/><path d="M0,35 L5,30 L0,25" class="cell_\44"/><g s:x="31" s:y="10" s:pid="Q"/><g s:x="-1" s:y="30" s:pid="CLK"/><g s:x="-1" s:y="30" s:pid="C"/><g s:x="-1" s:y="10" s:pid="D"/></g><g s:type="gt" transform="translate(483.6666666666667,847)" s:width="25" s:height="25" id="cell_\5"><s:alias val="$gt"/><circle r="12" cx="12" cy="12" class="cell_\5"/><line x1="8" x2="19" y1="7" y2="12" class="cell_\5"/><line x1="8" x2="19" y1="17" y2="12" class="cell_\5"/><g s:x="2" s:y="5" s:pid="A"/><g s:x="2" s:y="20" s:pid="B"/><g s:x="25" s:y="12.5" s:pid="Y"/></g><g s:type="lt" transform="translate(483.6666666666667,912)" s:width="25" s:height="25" id="cell_\7"><s:alias val="$lt"/><circle r="12.5" cx="12.5" cy="12.5" class="cell_\7"/><line x1="6" x2="17" y1="12" y2="7" class="cell_\7"/><line x1="6" x2="17" y1="12" y2="17" class="cell_\7"/><g s:x="2" s:y="5" s:pid="A"/><g s:x="2" s:y="20" s:pid="B"/><g s:x="25" s:y="12.5" s:pid="Y"/></g><g s:type="and" transform="translate(547,904.5)" s:width="30" s:height="25" id="cell_\8"><s:alias val="$and"/><s:alias val="$logic_and"/><s:alias val="$_AND_"/><path d="M0,0 L0,25 L15,25 A15 12.5 0 0 0 15,0 Z" class="cell_\8"/><g s:x="0" s:y="5" s:pid="A"/><g s:x="0" s:y="20" s:pid="B"/><g s:x="30" s:y="12.5" s:pid="Y"/></g><g s:type="inputExt" transform="translate(612,937)" s:width="30" s:height="20" id="cell_clk"><text x="15" y="-4" class="nodelabel cell_clk" s:attribute="ref">clk</text><s:alias val="$_inputExt_"/><path d="M0,0 L0,20 L15,20 L30,10 L15,0 Z" class="cell_clk"/><g s:x="30" s:y="10" s:pid="Y"/></g><g s:type="inputExt" transform="translate(12,378.5)" s:width="30" s:height="20" id="cell_lives_row"><text x="15" y="-4" class="nodelabel cell_lives_row" s:attribute="ref">lives_row</text><s:alias val="$_inputExt_"/><path d="M0,0 L0,20 L15,20 L30,10 L15,0 Z" class="cell_lives_row"/><g s:x="30" s:y="10" s:pid="Y"/></g><g s:type="inputExt" transform="translate(328,792)" s:width="30" s:height="20" id="cell_lives_col"><text x="15" y="-4" class="nodelabel cell_lives_col" s:attribute="ref">lives_col</text><s:alias val="$_inputExt_"/><path d="M0,0 L0,20 L15,20 L30,10 L15,0 Z" class="cell_lives_col"/><g s:x="30" s:y="10" s:pid="Y"/></g><g s:type="inputExt" transform="translate(101,504.5)" s:width="30" s:height="20" id="cell_livesCount"><text x="15" y="-4" class="nodelabel cell_livesCount" s:attribute="ref">livesCount</text><s:alias val="$_inputExt_"/><path d="M0,0 L0,20 L15,20 L30,10 L15,0 Z" class="cell_livesCount"/><g s:x="30" s:y="10" s:pid="Y"/></g><g s:type="outputExt" transform="translate(744,917)" s:width="30" s:height="20" id="cell_display"><text x="15" y="-4" class="nodelabel cell_display" s:attribute="ref">display</text><s:alias val="$_outputExt_"/><path d="M30,0 L30,20 L15,20 L0,10 L15,0 Z" class="cell_display"/><g s:x="0" s:y="10" s:pid="A"/></g><g s:type="constant" transform="translate(196,585.5)" s:width="30" s:height="20" id="cell_1000100110"><text x="15" y="-4" class="nodelabel cell_1000100110" s:attribute="ref">0x226</text><s:alias val="$_constant_"/><rect width="30" height="20" class="cell_1000100110"/><g s:x="31" s:y="10" s:pid="Y"/></g><g s:type="constant" transform="translate(196,695.5)" s:width="30" s:height="20" id="cell_1000110000"><text x="15" y="-4" class="nodelabel cell_1000110000" s:attribute="ref">0x230</text><s:alias val="$_constant_"/><rect width="30" height="20" class="cell_1000110000"/><g s:x="31" s:y="10" s:pid="Y"/></g><g s:type="constant" transform="translate(328,23)" s:width="30" s:height="20" id="cell_0"><text x="15" y="-4" class="nodelabel cell_0" s:attribute="ref">0</text><s:alias val="$_constant_"/><rect width="30" height="20" class="cell_0"/><g s:x="31" s:y="10" s:pid="Y"/></g><g s:type="constant" transform="translate(101,329.5)" s:width="30" s:height="20" id="cell_1000010010"><text x="15" y="-4" class="nodelabel cell_1000010010" s:attribute="ref">0x212</text><s:alias val="$_constant_"/><rect width="30" height="20" class="cell_1000010010"/><g s:x="31" s:y="10" s:pid="Y"/></g><g s:type="constant" transform="translate(101,439.5)" s:width="30" s:height="20" id="cell_1000011100"><text x="15" y="-4" class="nodelabel cell_1000011100" s:attribute="ref">0x21c</text><s:alias val="$_constant_"/><rect width="30" height="20" class="cell_1000011100"/><g s:x="31" s:y="10" s:pid="Y"/></g><g s:type="constant" transform="translate(262,83)" s:width="30" s:height="20" id="cell_1"><text x="15" y="-4" class="nodelabel cell_1" s:attribute="ref">1</text><s:alias val="$_constant_"/><rect width="30" height="20" class="cell_1"/><g s:x="31" s:y="10" s:pid="Y"/></g><g s:type="constant" transform="translate(12,90.5)" s:width="30" s:height="20" id="cell_111111110"><text x="15" y="-4" class="nodelabel cell_111111110" s:attribute="ref">0x1fe</text><s:alias val="$_constant_"/><rect width="30" height="20" class="cell_111111110"/><g s:x="31" s:y="10" s:pid="Y"/></g><g s:type="constant" transform="translate(12,155.5)" s:width="30" s:height="20" id="cell_1000001000"><text x="15" y="-4" class="nodelabel cell_1000001000" s:attribute="ref">0x208</text><s:alias val="$_constant_"/><rect width="30" height="20" class="cell_1000001000"/><g s:x="31" s:y="10" s:pid="Y"/></g><g s:type="constant" transform="translate(101,219.5)" s:width="30" s:height="20" id="cell_10"><text x="15" y="-4" class="nodelabel cell_10" s:attribute="ref">10</text><s:alias val="$_constant_"/><rect width="30" height="20" class="cell_10"/><g s:x="31" s:y="10" s:pid="Y"/></g><g s:type="constant" transform="translate(328,857)" s:width="30" s:height="20" id="cell_111001100"><text x="15" y="-4" class="nodelabel cell_111001100" s:attribute="ref">0x1cc</text><s:alias val="$_constant_"/><rect width="30" height="20" class="cell_111001100"/><g s:x="31" s:y="10" s:pid="Y"/></g><g s:type="constant" transform="translate(328,922)" s:width="30" s:height="20" id="cell_111010110"><text x="15" y="-4" class="nodelabel cell_111010110" s:attribute="ref">0x1d6</text><s:alias val="$_constant_"/><rect width="30" height="20" class="cell_111010110"/><g s:x="31" s:y="10" s:pid="Y"/></g><line x1="42" x2="76" y1="388.5" y2="388.5" class="net_3,4,5,6,7,8,9,10,11,12 width_10" style="stroke-width: 2"/><line x1="76" x2="76" y1="388.5" y2="644.5" class="net_3,4,5,6,7,8,9,10,11,12 width_10" style="stroke-width: 2"/><line x1="76" x2="181" y1="644.5" y2="644.5" class="net_3,4,5,6,7,8,9,10,11,12 width_10" style="stroke-width: 2"/><line x1="181" x2="181" y1="644.5" y2="534.5" class="net_3,4,5,6,7,8,9,10,11,12 width_10" style="stroke-width: 2"/><line x1="181" x2="303" y1="534.5" y2="534.5" class="net_3,4,5,6,7,8,9,10,11,12 width_10" style="stroke-width: 2"/><line x1="303" x2="303" y1="534.5" y2="580.5" class="net_3,4,5,6,7,8,9,10,11,12 width_10" style="stroke-width: 2"/><circle cx="76" cy="388.5" r="3" style="fill:#000" class="net_3,4,5,6,7,8,9,10,11,12 width_10"/><circle cx="181" cy="644.5" r="3" style="fill:#000" class="net_3,4,5,6,7,8,9,10,11,12 width_10"/><line x1="303" x2="339.6666666666667" y1="580.5" y2="580.5" class="net_3,4,5,6,7,8,9,10,11,12 width_10" style="stroke-width: 2"/><line x1="42" x2="76" y1="388.5" y2="388.5" class="net_3,4,5,6,7,8,9,10,11,12 width_10" style="stroke-width: 2"/><line x1="76" x2="76" y1="388.5" y2="644.5" class="net_3,4,5,6,7,8,9,10,11,12 width_10" style="stroke-width: 2"/><line x1="76" x2="303" y1="644.5" y2="644.5" class="net_3,4,5,6,7,8,9,10,11,12 width_10" style="stroke-width: 2"/><line x1="303" x2="303" y1="644.5" y2="690.5" class="net_3,4,5,6,7,8,9,10,11,12 width_10" style="stroke-width: 2"/><line x1="303" x2="339.6666666666667" y1="690.5" y2="690.5" class="net_3,4,5,6,7,8,9,10,11,12 width_10" style="stroke-width: 2"/><line x1="42" x2="76" y1="388.5" y2="388.5" class="net_3,4,5,6,7,8,9,10,11,12 width_10" style="stroke-width: 2"/><line x1="76" x2="76" y1="388.5" y2="278.5" class="net_3,4,5,6,7,8,9,10,11,12 width_10" style="stroke-width: 2"/><line x1="76" x2="237" y1="278.5" y2="278.5" class="net_3,4,5,6,7,8,9,10,11,12 width_10" style="stroke-width: 2"/><line x1="237" x2="237" y1="278.5" y2="324.5" class="net_3,4,5,6,7,8,9,10,11,12 width_10" style="stroke-width: 2"/><circle cx="76" cy="278.5" r="3" style="fill:#000" class="net_3,4,5,6,7,8,9,10,11,12 width_10"/><line x1="237" x2="266" y1="324.5" y2="324.5" class="net_3,4,5,6,7,8,9,10,11,12 width_10" style="stroke-width: 2"/><line x1="42" x2="237" y1="388.5" y2="388.5" class="net_3,4,5,6,7,8,9,10,11,12 width_10" style="stroke-width: 2"/><line x1="237" x2="237" y1="388.5" y2="434.5" class="net_3,4,5,6,7,8,9,10,11,12 width_10" style="stroke-width: 2"/><line x1="237" x2="266" y1="434.5" y2="434.5" class="net_3,4,5,6,7,8,9,10,11,12 width_10" style="stroke-width: 2"/><line x1="42" x2="76" y1="388.5" y2="388.5" class="net_3,4,5,6,7,8,9,10,11,12 width_10" style="stroke-width: 2"/><line x1="76" x2="76" y1="388.5" y2="80.5" class="net_3,4,5,6,7,8,9,10,11,12 width_10" style="stroke-width: 2"/><line x1="76" x2="171" y1="80.5" y2="80.5" class="net_3,4,5,6,7,8,9,10,11,12 width_10" style="stroke-width: 2"/><line x1="171" x2="171" y1="80.5" y2="85.5" class="net_3,4,5,6,7,8,9,10,11,12 width_10" style="stroke-width: 2"/><line x1="171" x2="200" y1="85.5" y2="85.5" class="net_3,4,5,6,7,8,9,10,11,12 width_10" style="stroke-width: 2"/><line x1="42" x2="76" y1="388.5" y2="388.5" class="net_3,4,5,6,7,8,9,10,11,12 width_10" style="stroke-width: 2"/><line x1="76" x2="76" y1="388.5" y2="145.5" class="net_3,4,5,6,7,8,9,10,11,12 width_10" style="stroke-width: 2"/><line x1="76" x2="171" y1="145.5" y2="145.5" class="net_3,4,5,6,7,8,9,10,11,12 width_10" style="stroke-width: 2"/><line x1="171" x2="171" y1="145.5" y2="150.5" class="net_3,4,5,6,7,8,9,10,11,12 width_10" style="stroke-width: 2"/><circle cx="76" cy="145.5" r="3" style="fill:#000" class="net_3,4,5,6,7,8,9,10,11,12 width_10"/><line x1="171" x2="200" y1="150.5" y2="150.5" class="net_3,4,5,6,7,8,9,10,11,12 width_10" style="stroke-width: 2"/><line x1="227" x2="339.6666666666667" y1="595.5" y2="595.5" class="net_48,49,50,51,52,53,54,55,56,57 width_10" style="stroke-width: 2"/><line x1="227" x2="339.6666666666667" y1="705.5" y2="705.5" class="net_58,59,60,61,62,63,64,65,66,67 width_10" style="stroke-width: 2"/><line x1="362.6666666666667" x2="402" y1="588" y2="588" class="net_26 width_1" style="stroke-width: 1"/><line x1="402" x2="402" y1="588" y2="683" class="net_26 width_1" style="stroke-width: 1"/><line x1="402" x2="417" y1="683" y2="683" class="net_26 width_1" style="stroke-width: 1"/><line x1="362.6666666666667" x2="417" y1="698" y2="698" class="net_27 width_1" style="stroke-width: 1"/><line x1="131" x2="171" y1="514.5" y2="514.5" class="net_23,24 width_2" style="stroke-width: 2"/><line x1="171" x2="171" y1="514.5" y2="743" class="net_23,24 width_2" style="stroke-width: 2"/><circle cx="171" cy="514.5" r="3" style="fill:#000" class="net_23,24 width_2"/><line x1="171" x2="420.6666666666667" y1="743" y2="743" class="net_23,24 width_2" style="stroke-width: 2"/><line x1="131" x2="339.6666666666667" y1="514.5" y2="514.5" class="net_23,24 width_2" style="stroke-width: 2"/><line x1="131" x2="171" y1="514.5" y2="514.5" class="net_23,24 width_2" style="stroke-width: 2"/><line x1="171" x2="171" y1="514.5" y2="209.5" class="net_23,24 width_2" style="stroke-width: 2"/><line x1="171" x2="237" y1="209.5" y2="209.5" class="net_23,24 width_2" style="stroke-width: 2"/><line x1="237" x2="237" y1="209.5" y2="214.5" class="net_23,24 width_2" style="stroke-width: 2"/><line x1="237" x2="266" y1="214.5" y2="214.5" class="net_23,24 width_2" style="stroke-width: 2"/><line x1="359" x2="392" y1="33" y2="33" class="net_68 width_1" style="stroke-width: 1"/><line x1="392" x2="392" y1="33" y2="758" class="net_68 width_1" style="stroke-width: 1"/><circle cx="392" cy="33" r="2" style="fill:#000" class="net_68 width_1"/><line x1="392" x2="420.6666666666667" y1="758" y2="758" class="net_68 width_1" style="stroke-width: 1"/><line x1="359" x2="420.3333333333333" y1="33" y2="33" class="net_68 width_1" style="stroke-width: 1"/><line x1="359" x2="392" y1="33" y2="33" class="net_68 width_1" style="stroke-width: 1"/><line x1="392" x2="392" y1="33" y2="12" class="net_68 width_1" style="stroke-width: 1"/><line x1="392" x2="587" y1="12" y2="12" class="net_68 width_1" style="stroke-width: 1"/><line x1="587" x2="587" y1="12" y2="63" class="net_68 width_1" style="stroke-width: 1"/><line x1="587" x2="615.3333333333334" y1="63" y2="63" class="net_68 width_1" style="stroke-width: 1"/><line x1="447" x2="457" y1="690.5" y2="690.5" class="net_28 width_1" style="stroke-width: 1"/><line x1="457" x2="457" y1="690.5" y2="735.5" class="net_28 width_1" style="stroke-width: 1"/><line x1="457" x2="482" y1="735.5" y2="735.5" class="net_28 width_1" style="stroke-width: 1"/><line x1="443.6666666666667" x2="482" y1="750.5" y2="750.5" class="net_29 width_1" style="stroke-width: 1"/><line x1="132" x2="266" y1="339.5" y2="339.5" class="net_69,70,71,72,73,74,75,76,77,78 width_10" style="stroke-width: 2"/><line x1="132" x2="266" y1="449.5" y2="449.5" class="net_79,80,81,82,83,84,85,86,87,88 width_10" style="stroke-width: 2"/><line x1="289" x2="303" y1="332" y2="332" class="net_31 width_1" style="stroke-width: 1"/><line x1="303" x2="303" y1="332" y2="427" class="net_31 width_1" style="stroke-width: 1"/><line x1="303" x2="336" y1="427" y2="427" class="net_31 width_1" style="stroke-width: 1"/><line x1="289" x2="336" y1="442" y2="442" class="net_32 width_1" style="stroke-width: 1"/><line x1="293" x2="313" y1="93" y2="93" class="net_89 width_1" style="stroke-width: 1"/><line x1="313" x2="313" y1="93" y2="529.5" class="net_89 width_1" style="stroke-width: 1"/><circle cx="313" cy="93" r="2" style="fill:#000" class="net_89 width_1"/><line x1="313" x2="339.6666666666667" y1="529.5" y2="529.5" class="net_89 width_1" style="stroke-width: 1"/><line x1="293" x2="402" y1="93" y2="93" class="net_89 width_1" style="stroke-width: 1"/><line x1="402" x2="402" y1="93" y2="53" class="net_89 width_1" style="stroke-width: 1"/><circle cx="402" cy="93" r="2" style="fill:#000" class="net_89 width_1"/><line x1="402" x2="420.3333333333333" y1="53" y2="53" class="net_89 width_1" style="stroke-width: 1"/><line x1="293" x2="457" y1="93" y2="93" class="net_89 width_1" style="stroke-width: 1"/><line x1="457" x2="457" y1="93" y2="63" class="net_89 width_1" style="stroke-width: 1"/><circle cx="457" cy="93" r="2" style="fill:#000" class="net_89 width_1"/><line x1="457" x2="485.3333333333333" y1="63" y2="63" class="net_89 width_1" style="stroke-width: 1"/><line x1="293" x2="550.3333333333334" y1="93" y2="93" class="net_89 width_1" style="stroke-width: 1"/><line x1="366" x2="402" y1="434.5" y2="434.5" class="net_33 width_1" style="stroke-width: 1"/><line x1="402" x2="402" y1="434.5" y2="507" class="net_33 width_1" style="stroke-width: 1"/><line x1="402" x2="417" y1="507" y2="507" class="net_33 width_1" style="stroke-width: 1"/><line x1="362.6666666666667" x2="417" y1="522" y2="522" class="net_34 width_1" style="stroke-width: 1"/><line x1="43" x2="200" y1="100.5" y2="100.5" class="net_90,91,92,93,94,95,96,97,98 width_9" style="stroke-width: 2"/><line x1="43" x2="200" y1="165.5" y2="165.5" class="net_99,100,101,102,103,104,105,106,107,108 width_10" style="stroke-width: 2"/><line x1="223" x2="237" y1="93" y2="93" class="net_36 width_1" style="stroke-width: 1"/><line x1="237" x2="237" y1="93" y2="143" class="net_36 width_1" style="stroke-width: 1"/><line x1="237" x2="262.33333333333337" y1="143" y2="143" class="net_36 width_1" style="stroke-width: 1"/><line x1="223" x2="262.33333333333337" y1="158" y2="158" class="net_37 width_1" style="stroke-width: 1"/><line x1="132" x2="266" y1="229.5" y2="229.5" class="net_109,110 width_2" style="stroke-width: 2"/><line x1="292.33333333333337" x2="303" y1="150.5" y2="150.5" class="net_38 width_1" style="stroke-width: 1"/><line x1="303" x2="303" y1="150.5" y2="207" class="net_38 width_1" style="stroke-width: 1"/><line x1="303" x2="336" y1="207" y2="207" class="net_38 width_1" style="stroke-width: 1"/><line x1="289" x2="336" y1="222" y2="222" class="net_39 width_1" style="stroke-width: 1"/><line x1="366" x2="430.3333333333333" y1="214.5" y2="214.5" class="net_40 width_1" style="stroke-width: 1"/><line x1="430.3333333333333" x2="430.3333333333333" y1="214.5" y2="58" class="net_40 width_1" style="stroke-width: 1"/><line x1="440.3333333333333" x2="485.3333333333333" y1="43" y2="43" class="net_41 width_1" style="stroke-width: 1"/><line x1="447" x2="467" y1="514.5" y2="514.5" class="net_35 width_1" style="stroke-width: 1"/><line x1="467" x2="467" y1="514.5" y2="83" class="net_35 width_1" style="stroke-width: 1"/><line x1="467" x2="495.3333333333333" y1="83" y2="83" class="net_35 width_1" style="stroke-width: 1"/><line x1="495.3333333333333" x2="495.3333333333333" y1="83" y2="68" class="net_35 width_1" style="stroke-width: 1"/><line x1="505.3333333333333" x2="522" y1="53" y2="53" class="net_42 width_1" style="stroke-width: 1"/><line x1="522" x2="522" y1="53" y2="73" class="net_42 width_1" style="stroke-width: 1"/><line x1="522" x2="550.3333333333334" y1="73" y2="73" class="net_42 width_1" style="stroke-width: 1"/><line x1="512" x2="560.3333333333334" y1="743" y2="743" class="net_30 width_1" style="stroke-width: 1"/><line x1="560.3333333333334" x2="560.3333333333334" y1="743" y2="98" class="net_30 width_1" style="stroke-width: 1"/><line x1="570.3333333333334" x2="615.3333333333334" y1="83" y2="83" class="net_43 width_1" style="stroke-width: 1"/><line x1="577" x2="625.3333333333334" y1="917" y2="917" class="net_44 width_1" style="stroke-width: 1"/><line x1="625.3333333333334" x2="625.3333333333334" y1="917" y2="88" class="net_44 width_1" style="stroke-width: 1"/><line x1="642" x2="677" y1="947" y2="947" class="net_2 width_1" style="stroke-width: 1"/><line x1="635.3333333333334" x2="652" y1="73" y2="73" class="net_45 width_1" style="stroke-width: 1"/><line x1="652" x2="652" y1="73" y2="927" class="net_45 width_1" style="stroke-width: 1"/><line x1="652" x2="677" y1="927" y2="927" class="net_45 width_1" style="stroke-width: 1"/><line x1="358" x2="457" y1="802" y2="802" class="net_13,14,15,16,17,18,19,20,21,22 width_10" style="stroke-width: 2"/><line x1="457" x2="457" y1="802" y2="852" class="net_13,14,15,16,17,18,19,20,21,22 width_10" style="stroke-width: 2"/><line x1="457" x2="485.6666666666667" y1="852" y2="852" class="net_13,14,15,16,17,18,19,20,21,22 width_10" style="stroke-width: 2"/><line x1="358" x2="392" y1="802" y2="802" class="net_13,14,15,16,17,18,19,20,21,22 width_10" style="stroke-width: 2"/><line x1="392" x2="392" y1="802" y2="912" class="net_13,14,15,16,17,18,19,20,21,22 width_10" style="stroke-width: 2"/><line x1="392" x2="457" y1="912" y2="912" class="net_13,14,15,16,17,18,19,20,21,22 width_10" style="stroke-width: 2"/><line x1="457" x2="457" y1="912" y2="917" class="net_13,14,15,16,17,18,19,20,21,22 width_10" style="stroke-width: 2"/><circle cx="392" cy="802" r="3" style="fill:#000" class="net_13,14,15,16,17,18,19,20,21,22 width_10"/><line x1="457" x2="485.6666666666667" y1="917" y2="917" class="net_13,14,15,16,17,18,19,20,21,22 width_10" style="stroke-width: 2"/><line x1="359" x2="485.6666666666667" y1="867" y2="867" class="net_116,117,118,119,120,121,122,123,124 width_9" style="stroke-width: 2"/><line x1="359" x2="485.6666666666667" y1="932" y2="932" class="net_125,126,127,128,129,130,131,132,133 width_9" style="stroke-width: 2"/><line x1="508.6666666666667" x2="522" y1="859.5" y2="859.5" class="net_46 width_1" style="stroke-width: 1"/><line x1="522" x2="522" y1="859.5" y2="909.5" class="net_46 width_1" style="stroke-width: 1"/><line x1="522" x2="547" y1="909.5" y2="909.5" class="net_46 width_1" style="stroke-width: 1"/><line x1="508.6666666666667" x2="547" y1="924.5" y2="924.5" class="net_47 width_1" style="stroke-width: 1"/><line x1="709" x2="744" y1="927" y2="927" class="net_25 width_1" style="stroke-width: 1"/><rect x="130" y="140.5" width="22" height="9" class="net_3,4,5,6,7,8,9,10,11,12 width_10 busLabel_10" style="fill: white; stroke: none"/><text x="129" y="148.5" class="net_3,4,5,6,7,8,9,10,11,12 width_10 busLabel_10">/10/</text><rect x="130" y="140.5" width="22" height="9" class="net_3,4,5,6,7,8,9,10,11,12 width_10 busLabel_10" style="fill: white; stroke: none"/><text x="129" y="148.5" class="net_3,4,5,6,7,8,9,10,11,12 width_10 busLabel_10">/10/</text><rect x="130" y="140.5" width="22" height="9" class="net_3,4,5,6,7,8,9,10,11,12 width_10 busLabel_10" style="fill: white; stroke: none"/><text x="129" y="148.5" class="net_3,4,5,6,7,8,9,10,11,12 width_10 busLabel_10">/10/</text><rect x="130" y="140.5" width="22" height="9" class="net_3,4,5,6,7,8,9,10,11,12 width_10 busLabel_10" style="fill: white; stroke: none"/><text x="129" y="148.5" class="net_3,4,5,6,7,8,9,10,11,12 width_10 busLabel_10">/10/</text><rect x="130" y="140.5" width="22" height="9" class="net_3,4,5,6,7,8,9,10,11,12 width_10 busLabel_10" style="fill: white; stroke: none"/><text x="129" y="148.5" class="net_3,4,5,6,7,8,9,10,11,12 width_10 busLabel_10">/10/</text><rect x="130" y="140.5" width="22" height="9" class="net_3,4,5,6,7,8,9,10,11,12 width_10 busLabel_10" style="fill: white; stroke: none"/><text x="129" y="148.5" class="net_3,4,5,6,7,8,9,10,11,12 width_10 busLabel_10">/10/</text><rect x="276.5" y="590.5" width="22" height="9" class="net_48,49,50,51,52,53,54,55,56,57 width_10 busLabel_10" style="fill: white; stroke: none"/><text x="275.5" y="598.5" class="net_48,49,50,51,52,53,54,55,56,57 width_10 busLabel_10">/10/</text><rect x="276.5" y="700.5" width="22" height="9" class="net_58,59,60,61,62,63,64,65,66,67 width_10 busLabel_10" style="fill: white; stroke: none"/><text x="275.5" y="708.5" class="net_58,59,60,61,62,63,64,65,66,67 width_10 busLabel_10">/10/</text><rect x="210.5" y="204.5" width="16" height="9" class="net_23,24 width_2 busLabel_2" style="fill: white; stroke: none"/><text x="209.5" y="212.5" class="net_23,24 width_2 busLabel_2">/2/</text><rect x="210.5" y="204.5" width="16" height="9" class="net_23,24 width_2 busLabel_2" style="fill: white; stroke: none"/><text x="209.5" y="212.5" class="net_23,24 width_2 busLabel_2">/2/</text><rect x="210.5" y="204.5" width="16" height="9" class="net_23,24 width_2 busLabel_2" style="fill: white; stroke: none"/><text x="209.5" y="212.5" class="net_23,24 width_2 busLabel_2">/2/</text><rect x="210.5" y="334.5" width="22" height="9" class="net_69,70,71,72,73,74,75,76,77,78 width_10 busLabel_10" style="fill: white; stroke: none"/><text x="209.5" y="342.5" class="net_69,70,71,72,73,74,75,76,77,78 width_10 busLabel_10">/10/</text><rect x="210.5" y="444.5" width="22" height="9" class="net_79,80,81,82,83,84,85,86,87,88 width_10 busLabel_10" style="fill: white; stroke: none"/><text x="209.5" y="452.5" class="net_79,80,81,82,83,84,85,86,87,88 width_10 busLabel_10">/10/</text><rect x="130" y="95.5" width="16" height="9" class="net_90,91,92,93,94,95,96,97,98 width_9 busLabel_9" style="fill: white; stroke: none"/><text x="129" y="103.5" class="net_90,91,92,93,94,95,96,97,98 width_9 busLabel_9">/9/</text><rect x="130" y="160.5" width="22" height="9" class="net_99,100,101,102,103,104,105,106,107,108 width_10 busLabel_10" style="fill: white; stroke: none"/><text x="129" y="168.5" class="net_99,100,101,102,103,104,105,106,107,108 width_10 busLabel_10">/10/</text><rect x="210.5" y="224.5" width="16" height="9" class="net_109,110 width_2 busLabel_2" style="fill: white; stroke: none"/><text x="209.5" y="232.5" class="net_109,110 width_2 busLabel_2">/2/</text><rect x="431" y="907" width="22" height="9" class="net_13,14,15,16,17,18,19,20,21,22 width_10 busLabel_10" style="fill: white; stroke: none"/><text x="430" y="915" class="net_13,14,15,16,17,18,19,20,21,22 width_10 busLabel_10">/10/</text><rect x="431" y="907" width="22" height="9" class="net_13,14,15,16,17,18,19,20,21,22 width_10 busLabel_10" style="fill: white; stroke: none"/><text x="430" y="915" class="net_13,14,15,16,17,18,19,20,21,22 width_10 busLabel_10">/10/</text><rect x="431" y="862" width="16" height="9" class="net_116,117,118,119,120,121,122,123,124 width_9 busLabel_9" style="fill: white; stroke: none"/><text x="430" y="870" class="net_116,117,118,119,120,121,122,123,124 width_9 busLabel_9">/9/</text><rect x="431" y="927" width="16" height="9" class="net_125,126,127,128,129,130,131,132,133 width_9 busLabel_9" style="fill: white; stroke: none"/><text x="430" y="935" class="net_125,126,127,128,129,130,131,132,133 width_9 busLabel_9">/9/</text></svg>