<svg xmlns="http://www.w3.org/2000/svg" xmlns:xlink="http://www.w3.org/1999/xlink" xmlns:s="https://github.com/nturley/netlistsvg" width="468" height="701"><style>svg {
  stroke:#000;
  fill:none;
}
text {
  fill:#000;
  stroke:none;
  font-size:10px;
  font-weight: bold;
  font-family: "Courier New", monospace;
}
line {
    stroke-linecap: round;
}
.nodelabel {
  text-anchor: middle;
}
.inputPortLabel {
  text-anchor: end;
}
.splitjoinBody {
  fill:#000;
}</style><g s:type="add" transform="translate(268.3333333333333,43)" s:width="25" s:height="25" id="cell_\13"><s:alias val="$add"/><circle r="12.5" cx="12.5" cy="12.5" class="cell_\13"/><line x1="7.5" x2="17.5" y1="12.5" y2="12.5" class="cell_\13"/><line x1="12.5" x2="12.5" y1="7.5" y2="17.5" class="cell_\13"/><g s:x="2" s:y="5" s:pid="A"/><g s:x="2" s:y="20" s:pid="B"/><g s:x="26" s:y="12.5" s:pid="Y"/></g><g s:type="dff" transform="translate(415,86.5)" s:width="30" s:height="40" id="cell_\16"><s:alias val="$dff"/><s:alias val="$_DFF_"/><s:alias val="$_DFF_P_"/><s:alias val="dff-bus"/><s:alias val="$dff-bus"/><s:alias val="$_DFF_-bus"/><s:alias val="$_DFF_P_-bus"/><rect width="30" height="40" x="0" y="0" class="cell_\16"/><path d="M0,35 L5,30 L0,25" class="cell_\16"/><g s:x="31" s:y="10" s:pid="Q"/><g s:x="-1" s:y="30" s:pid="CLK"/><g s:x="-1" s:y="30" s:pid="C"/><g s:x="-1" s:y="10" s:pid="D"/></g><g s:type="eq" transform="translate(166,162.5)" s:width="25" s:height="25" id="cell_\21"><s:alias val="$eq"/><circle r="12.5" cx="12.5" cy="12.5" class="cell_\21"/><line x1="7.5" x2="17.5" y1="10" y2="10" class="cell_\21"/><line x1="7.5" x2="17.5" y1="15" y2="15" class="cell_\21"/><g s:x="2" s:y="5" s:pid="A"/><g s:x="2" s:y="20" s:pid="B"/><g s:x="25" s:y="12.5" s:pid="Y"/></g><g s:type="mux" transform="translate(275,232.5)" s:width="20" s:height="40" id="cell_\22"><s:alias val="$pmux"/><s:alias val="$mux"/><s:alias val="$_MUX_"/><path d="M0,0 L20,10 L20,30 L0,40 Z" class="cell_\22"/><text x="5" y="32" class="nodelabel cell_\22" s:attribute="">1</text><text x="5" y="13" class="nodelabel cell_\22" s:attribute="">0</text><g s:x="0" s:y="10" s:pid="A"/><g s:x="0" s:y="30" s:pid="B"/><g s:x="10" s:y="35" s:pid="S"/><g s:x="20" s:y="20" s:pid="Y"/></g><g s:type="lt" transform="translate(271,533.5)" s:width="25" s:height="25" id="cell_\26"><s:alias val="$lt"/><circle r="12.5" cx="12.5" cy="12.5" class="cell_\26"/><line x1="6" x2="17" y1="12" y2="7" class="cell_\26"/><line x1="6" x2="17" y1="12" y2="17" class="cell_\26"/><g s:x="2" s:y="5" s:pid="A"/><g s:x="2" s:y="20" s:pid="B"/><g s:x="25" s:y="12.5" s:pid="Y"/></g><g s:type="mux" transform="translate(340.6666666666667,447.5)" s:width="20" s:height="40" id="cell_\27"><s:alias val="$pmux"/><s:alias val="$mux"/><s:alias val="$_MUX_"/><path d="M0,0 L20,10 L20,30 L0,40 Z" class="cell_\27"/><text x="5" y="32" class="nodelabel cell_\27" s:attribute="">1</text><text x="5" y="13" class="nodelabel cell_\27" s:attribute="">0</text><g s:x="0" s:y="10" s:pid="A"/><g s:x="0" s:y="30" s:pid="B"/><g s:x="10" s:y="35" s:pid="S"/><g s:x="20" s:y="20" s:pid="Y"/></g><g s:type="dff" transform="translate(415,614.5)" s:width="30" s:height="40" id="cell_\42"><s:alias val="$dff"/><s:alias val="$_DFF_"/><s:alias val="$_DFF_P_"/><s:alias val="dff-bus"/><s:alias val="$dff-bus"/><s:alias val="$_DFF_-bus"/><s:alias val="$_DFF_P_-bus"/><rect width="30" height="40" x="0" y="0" class="cell_\42"/><path d="M0,35 L5,30 L0,25" class="cell_\42"/><g s:x="31" s:y="10" s:pid="Q"/><g s:x="-1" s:y="30" s:pid="CLK"/><g s:x="-1" s:y="30" s:pid="C"/><g s:x="-1" s:y="10" s:pid="D"/></g><g s:type="not" transform="translate(266,177.5)" s:width="30" s:height="20" id="cell_\47"><s:alias val="$_NOT_"/><s:alias val="$not"/><s:alias val="$logic_not"/><path d="M0,0 L0,20 L20,10 Z" class="cell_\47"/><circle cx="24" cy="10" r="3" class="cell_\47"/><g s:x="-1" s:y="10" s:pid="A"/><g s:x="27" s:y="10" s:pid="Y"/></g><g s:type="not" transform="translate(266,297.5)" s:width="30" s:height="20" id="cell_\49"><s:alias val="$_NOT_"/><s:alias val="$not"/><s:alias val="$logic_not"/><path d="M0,0 L0,20 L20,10 Z" class="cell_\49"/><circle cx="24" cy="10" r="3" class="cell_\49"/><g s:x="-1" s:y="10" s:pid="A"/><g s:x="27" s:y="10" s:pid="Y"/></g><g s:type="not" transform="translate(266,372.5)" s:width="30" s:height="20" id="cell_\51"><s:alias val="$_NOT_"/><s:alias val="$not"/><s:alias val="$logic_not"/><path d="M0,0 L0,20 L20,10 Z" class="cell_\51"/><circle cx="24" cy="10" r="3" class="cell_\51"/><g s:x="-1" s:y="10" s:pid="A"/><g s:x="27" s:y="10" s:pid="Y"/></g><g s:type="dff" transform="translate(337.3333333333333,297.5)" s:width="30" s:height="40" id="cell_\56"><s:alias val="$dff"/><s:alias val="$_DFF_"/><s:alias val="$_DFF_P_"/><s:alias val="dff-bus"/><s:alias val="$dff-bus"/><s:alias val="$_DFF_-bus"/><s:alias val="$_DFF_P_-bus"/><rect width="30" height="40" x="0" y="0" class="cell_\56"/><path d="M0,35 L5,30 L0,25" class="cell_\56"/><g s:x="31" s:y="10" s:pid="Q"/><g s:x="-1" s:y="30" s:pid="CLK"/><g s:x="-1" s:y="30" s:pid="C"/><g s:x="-1" s:y="10" s:pid="D"/></g><g s:type="dff" transform="translate(337.3333333333333,372.5)" s:width="30" s:height="40" id="cell_\57"><s:alias val="$dff"/><s:alias val="$_DFF_"/><s:alias val="$_DFF_P_"/><s:alias val="dff-bus"/><s:alias val="$dff-bus"/><s:alias val="$_DFF_-bus"/><s:alias val="$_DFF_P_-bus"/><rect width="30" height="40" x="0" y="0" class="cell_\57"/><path d="M0,35 L5,30 L0,25" class="cell_\57"/><g s:x="31" s:y="10" s:pid="Q"/><g s:x="-1" s:y="30" s:pid="CLK"/><g s:x="-1" s:y="30" s:pid="C"/><g s:x="-1" s:y="10" s:pid="D"/></g><g s:type="dff" transform="translate(337.3333333333333,222.5)" s:width="30" s:height="40" id="cell_\58"><s:alias val="$dff"/><s:alias val="$_DFF_"/><s:alias val="$_DFF_P_"/><s:alias val="dff-bus"/><s:alias val="$dff-bus"/><s:alias val="$_DFF_-bus"/><s:alias val="$_DFF_P_-bus"/><rect width="30" height="40" x="0" y="0" class="cell_\58"/><path d="M0,35 L5,30 L0,25" class="cell_\58"/><g s:x="31" s:y="10" s:pid="Q"/><g s:x="-1" s:y="30" s:pid="CLK"/><g s:x="-1" s:y="30" s:pid="C"/><g s:x="-1" s:y="10" s:pid="D"/></g><g s:type="inputExt" transform="translate(331,106.5)" s:width="30" s:height="20" id="cell_clock_in"><text x="15" y="-4" class="nodelabel cell_clock_in" s:attribute="ref">clock_in</text><s:alias val="$_inputExt_"/><path d="M0,0 L0,20 L15,20 L30,10 L15,0 Z" class="cell_clock_in"/><g s:x="30" s:y="10" s:pid="Y"/></g><g s:type="inputExt" transform="translate(164,624.5)" s:width="30" s:height="20" id="cell_data"><text x="15" y="-4" class="nodelabel cell_data" s:attribute="ref">data</text><s:alias val="$_inputExt_"/><path d="M0,0 L0,20 L15,20 L30,10 L15,0 Z" class="cell_data"/><g s:x="30" s:y="10" s:pid="Y"/></g><g s:type="outputExt" transform="translate(415,157.5)" s:width="30" s:height="20" id="cell_latch"><text x="15" y="-4" class="nodelabel cell_latch" s:attribute="ref">latch</text><s:alias val="$_outputExt_"/><path d="M30,0 L30,20 L15,20 L0,10 L15,0 Z" class="cell_latch"/><g s:x="0" s:y="10" s:pid="A"/></g><g s:type="outputExt" transform="translate(415,457.5)" s:width="30" s:height="20" id="cell_clock"><text x="15" y="-4" class="nodelabel cell_clock" s:attribute="ref">clock</text><s:alias val="$_outputExt_"/><path d="M30,0 L30,20 L15,20 L0,10 L15,0 Z" class="cell_clock"/><g s:x="0" s:y="10" s:pid="A"/></g><g s:type="outputExt" transform="translate(415,297.5)" s:width="30" s:height="20" id="cell_left"><text x="15" y="-4" class="nodelabel cell_left" s:attribute="ref">left</text><s:alias val="$_outputExt_"/><path d="M30,0 L30,20 L15,20 L0,10 L15,0 Z" class="cell_left"/><g s:x="0" s:y="10" s:pid="A"/></g><g s:type="outputExt" transform="translate(415,372.5)" s:width="30" s:height="20" id="cell_right"><text x="15" y="-4" class="nodelabel cell_right" s:attribute="ref">right</text><s:alias val="$_outputExt_"/><path d="M30,0 L30,20 L15,20 L0,10 L15,0 Z" class="cell_right"/><g s:x="0" s:y="10" s:pid="A"/></g><g s:type="outputExt" transform="translate(415,222.5)" s:width="30" s:height="20" id="cell_start"><text x="15" y="-4" class="nodelabel cell_start" s:attribute="ref">start</text><s:alias val="$_outputExt_"/><path d="M30,0 L30,20 L15,20 L0,10 L15,0 Z" class="cell_start"/><g s:x="0" s:y="10" s:pid="A"/></g><g s:type="constant" transform="translate(164,53)" s:width="30" s:height="20" id="cell_1"><text x="15" y="-4" class="nodelabel cell_1" s:attribute="ref">1</text><s:alias val="$_constant_"/><rect width="30" height="20" class="cell_1"/><g s:x="31" s:y="10" s:pid="Y"/></g><g s:type="constant" transform="translate(22,172.5)" s:width="30" s:height="20" id="cell_1111111111111111"><text x="15" y="-4" class="nodelabel cell_1111111111111111" s:attribute="ref">0xffff</text><s:alias val="$_constant_"/><rect width="30" height="20" class="cell_1111111111111111"/><g s:x="31" s:y="10" s:pid="Y"/></g><g s:type="constant" transform="translate(164,232.5)" s:width="30" s:height="20" id="cell_0"><text x="15" y="-4" class="nodelabel cell_0" s:attribute="ref">0</text><s:alias val="$_constant_"/><rect width="30" height="20" class="cell_0"/><g s:x="31" s:y="10" s:pid="Y"/></g><g s:type="constant" transform="translate(93,543.5)" s:width="30" s:height="20" id="cell_1000"><text x="15" y="-4" class="nodelabel cell_1000" s:attribute="ref">0x8</text><s:alias val="$_constant_"/><rect width="30" height="20" class="cell_1000"/><g s:x="31" s:y="10" s:pid="Y"/></g><g s:type="join" transform="translate(284,604)" s:width="4" s:height="40" id="cell_$join$,53,54,55,56,57,58,59,3,"><rect width="5" height="40" class="splitjoinBody" s:generic="body"/><s:alias val="$_join_"/><g s:x="5" s:y="20" s:pid="out"/><g transform="translate(0,10)" s:x="0" s:y="10" s:pid="in0"><text x="-3" y="-4" class="inputPortLabel">0:6</text></g><g transform="translate(0,30)" s:x="0" s:y="10" s:pid="in0"><text x="-3" y="-4" class="inputPortLabel">7</text></g></g><g s:type="split" transform="translate(28,447)" s:width="5" s:height="40" id="cell_$split$,9,10,11,12,13,14,15,16,17,18,19,20,21,22,23,24,25,26,27,28,29,"><rect width="5" height="40" class="splitjoinBody" s:generic="body"/><s:alias val="$_split_"/><g s:x="0" s:y="20" s:pid="in"/><g transform="translate(4,10)" s:x="4" s:y="10" s:pid="out0"><text x="5" y="-4">5:20</text></g><g transform="translate(4,30)" s:x="4" s:y="10" s:pid="out0"><text x="5" y="-4">4</text></g></g><g s:type="split" transform="translate(100,312)" s:width="5" s:height="40" id="cell_$split$,60,53,54,55,56,57,58,59,"><rect width="5" height="80" class="splitjoinBody" s:generic="body"/><s:alias val="$_split_"/><g s:x="0" s:y="20" s:pid="in"/><g transform="translate(4,10)" s:x="4" s:y="10" s:pid="out0"><text x="5" y="-4">1:7</text></g><g transform="translate(4,30)" s:x="4" s:y="10" s:pid="out0"><text x="5" y="-4">3</text></g><g transform="translate(4,50)" s:x="4" s:y="10" s:pid="out0"><text x="5" y="-4">7</text></g><g transform="translate(4,70)" s:x="4" s:y="10" s:pid="out0"><text x="5" y="-4">6</text></g></g><line x1="446" x2="456" y1="96.5" y2="96.5" class="net_9,10,11,12,13,14,15,16,17,18,19,20,21,22,23,24,25,26,27,28,29 width_21" style="stroke-width: 2"/><line x1="456" x2="456" y1="96.5" y2="33" class="net_9,10,11,12,13,14,15,16,17,18,19,20,21,22,23,24,25,26,27,28,29 width_21" style="stroke-width: 2"/><line x1="456" x2="255" y1="33" y2="33" class="net_9,10,11,12,13,14,15,16,17,18,19,20,21,22,23,24,25,26,27,28,29 width_21" style="stroke-width: 2"/><line x1="255" x2="255" y1="33" y2="48" class="net_9,10,11,12,13,14,15,16,17,18,19,20,21,22,23,24,25,26,27,28,29 width_21" style="stroke-width: 2"/><circle cx="456" cy="96.5" r="3" style="fill:#000" class="net_9,10,11,12,13,14,15,16,17,18,19,20,21,22,23,24,25,26,27,28,29 width_21"/><line x1="255" x2="270.3333333333333" y1="48" y2="48" class="net_9,10,11,12,13,14,15,16,17,18,19,20,21,22,23,24,25,26,27,28,29 width_21" style="stroke-width: 2"/><line x1="446" x2="456" y1="96.5" y2="96.5" class="net_9,10,11,12,13,14,15,16,17,18,19,20,21,22,23,24,25,26,27,28,29 width_21" style="stroke-width: 2"/><line x1="456" x2="456" y1="96.5" y2="137.5" class="net_9,10,11,12,13,14,15,16,17,18,19,20,21,22,23,24,25,26,27,28,29 width_21" style="stroke-width: 2"/><line x1="456" x2="245" y1="137.5" y2="137.5" class="net_9,10,11,12,13,14,15,16,17,18,19,20,21,22,23,24,25,26,27,28,29 width_21" style="stroke-width: 2"/><line x1="245" x2="245" y1="137.5" y2="16" class="net_9,10,11,12,13,14,15,16,17,18,19,20,21,22,23,24,25,26,27,28,29 width_21" style="stroke-width: 2"/><line x1="245" x2="12" y1="16" y2="16" class="net_9,10,11,12,13,14,15,16,17,18,19,20,21,22,23,24,25,26,27,28,29 width_21" style="stroke-width: 2"/><line x1="12" x2="12" y1="16" y2="467.5" class="net_9,10,11,12,13,14,15,16,17,18,19,20,21,22,23,24,25,26,27,28,29 width_21" style="stroke-width: 2"/><line x1="12" x2="28" y1="467.5" y2="467.5" class="net_9,10,11,12,13,14,15,16,17,18,19,20,21,22,23,24,25,26,27,28,29 width_21" style="stroke-width: 2"/><line x1="195" x2="270.3333333333333" y1="63" y2="63" class="net_64 width_1" style="stroke-width: 1"/><line x1="195" x2="225" y1="63" y2="63" class="net_64 width_1" style="stroke-width: 1"/><line x1="225" x2="225" y1="63" y2="262.5" class="net_64 width_1" style="stroke-width: 1"/><circle cx="225" cy="63" r="2" style="fill:#000" class="net_64 width_1"/><line x1="225" x2="275" y1="262.5" y2="262.5" class="net_64 width_1" style="stroke-width: 1"/><line x1="361" x2="414" y1="116.5" y2="116.5" class="net_2 width_1" style="stroke-width: 1"/><line x1="294.3333333333333" x2="389" y1="55.5" y2="55.5" class="net_30,31,32,33,34,35,36,37,38,39,40,41,42,43,44,45,46,47,48,49,50 width_21" style="stroke-width: 2"/><line x1="389" x2="389" y1="55.5" y2="96.5" class="net_30,31,32,33,34,35,36,37,38,39,40,41,42,43,44,45,46,47,48,49,50 width_21" style="stroke-width: 2"/><line x1="389" x2="414" y1="96.5" y2="96.5" class="net_30,31,32,33,34,35,36,37,38,39,40,41,42,43,44,45,46,47,48,49,50 width_21" style="stroke-width: 2"/><line x1="33" x2="68" y1="457.5" y2="457.5" class="net_14,15,16,17,18,19,20,21,22,23,24,25,26,27,28,29 width_16" style="stroke-width: 2"/><line x1="68" x2="68" y1="457.5" y2="162.5" class="net_14,15,16,17,18,19,20,21,22,23,24,25,26,27,28,29 width_16" style="stroke-width: 2"/><line x1="68" x2="144" y1="162.5" y2="162.5" class="net_14,15,16,17,18,19,20,21,22,23,24,25,26,27,28,29 width_16" style="stroke-width: 2"/><line x1="144" x2="144" y1="162.5" y2="167.5" class="net_14,15,16,17,18,19,20,21,22,23,24,25,26,27,28,29 width_16" style="stroke-width: 2"/><circle cx="68" cy="457.5" r="3" style="fill:#000" class="net_14,15,16,17,18,19,20,21,22,23,24,25,26,27,28,29 width_16"/><line x1="144" x2="168" y1="167.5" y2="167.5" class="net_14,15,16,17,18,19,20,21,22,23,24,25,26,27,28,29 width_16" style="stroke-width: 2"/><line x1="33" x2="68" y1="457.5" y2="457.5" class="net_14,15,16,17,18,19,20,21,22,23,24,25,26,27,28,29 width_16" style="stroke-width: 2"/><line x1="68" x2="68" y1="457.5" y2="492.5" class="net_14,15,16,17,18,19,20,21,22,23,24,25,26,27,28,29 width_16" style="stroke-width: 2"/><line x1="68" x2="205" y1="492.5" y2="492.5" class="net_14,15,16,17,18,19,20,21,22,23,24,25,26,27,28,29 width_16" style="stroke-width: 2"/><line x1="205" x2="205" y1="492.5" y2="538.5" class="net_14,15,16,17,18,19,20,21,22,23,24,25,26,27,28,29 width_16" style="stroke-width: 2"/><line x1="205" x2="273" y1="538.5" y2="538.5" class="net_14,15,16,17,18,19,20,21,22,23,24,25,26,27,28,29 width_16" style="stroke-width: 2"/><line x1="53" x2="168" y1="182.5" y2="182.5" class="net_65,66,67,68,69,70,71,72,73,74,75,76,77,78,79,80 width_16" style="stroke-width: 2"/><line x1="195" x2="275" y1="242.5" y2="242.5" class="net_81 width_1" style="stroke-width: 1"/><line x1="195" x2="205" y1="242.5" y2="242.5" class="net_81 width_1" style="stroke-width: 1"/><line x1="205" x2="205" y1="242.5" y2="457.5" class="net_81 width_1" style="stroke-width: 1"/><circle cx="205" cy="242.5" r="2" style="fill:#000" class="net_81 width_1"/><line x1="205" x2="340.6666666666667" y1="457.5" y2="457.5" class="net_81 width_1" style="stroke-width: 1"/><line x1="191" x2="215" y1="175" y2="175" class="net_51 width_1" style="stroke-width: 1"/><line x1="215" x2="215" y1="175" y2="287.5" class="net_51 width_1" style="stroke-width: 1"/><line x1="215" x2="285" y1="287.5" y2="287.5" class="net_51 width_1" style="stroke-width: 1"/><line x1="285" x2="285" y1="287.5" y2="267.5" class="net_51 width_1" style="stroke-width: 1"/><line x1="124" x2="273" y1="553.5" y2="553.5" class="net_83,84,85,86 width_4" style="stroke-width: 2"/><line x1="33" x2="340.6666666666667" y1="477.5" y2="477.5" class="net_13 width_1" style="stroke-width: 1"/><line x1="296" x2="350.6666666666667" y1="546" y2="546" class="net_52 width_1" style="stroke-width: 1"/><line x1="350.6666666666667" x2="350.6666666666667" y1="546" y2="482.5" class="net_52 width_1" style="stroke-width: 1"/><line x1="360.6666666666667" x2="389" y1="467.5" y2="467.5" class="net_5 width_1" style="stroke-width: 1"/><line x1="389" x2="389" y1="467.5" y2="644.5" class="net_5 width_1" style="stroke-width: 1"/><circle cx="389" cy="467.5" r="2" style="fill:#000" class="net_5 width_1"/><line x1="389" x2="414" y1="644.5" y2="644.5" class="net_5 width_1" style="stroke-width: 1"/><line x1="360.6666666666667" x2="415" y1="467.5" y2="467.5" class="net_5 width_1" style="stroke-width: 1"/><line x1="290" x2="414" y1="624.5" y2="624.5" class="net_53,54,55,56,57,58,59,3 width_8" style="stroke-width: 2"/><line x1="105" x2="134" y1="342.5" y2="342.5" class="net_55 width_1" style="stroke-width: 1"/><line x1="134" x2="134" y1="342.5" y2="32" class="net_55 width_1" style="stroke-width: 1"/><line x1="134" x2="235" y1="32" y2="32" class="net_55 width_1" style="stroke-width: 1"/><line x1="235" x2="235" y1="32" y2="187.5" class="net_55 width_1" style="stroke-width: 1"/><line x1="235" x2="265" y1="187.5" y2="187.5" class="net_55 width_1" style="stroke-width: 1"/><line x1="105" x2="144" y1="362.5" y2="362.5" class="net_59 width_1" style="stroke-width: 1"/><line x1="144" x2="144" y1="362.5" y2="307.5" class="net_59 width_1" style="stroke-width: 1"/><line x1="144" x2="265" y1="307.5" y2="307.5" class="net_59 width_1" style="stroke-width: 1"/><line x1="105" x2="265" y1="382.5" y2="382.5" class="net_58 width_1" style="stroke-width: 1"/><line x1="295" x2="306" y1="252.5" y2="252.5" class="net_4 width_1" style="stroke-width: 1"/><line x1="306" x2="306" y1="252.5" y2="327.5" class="net_4 width_1" style="stroke-width: 1"/><circle cx="306" cy="252.5" r="2" style="fill:#000" class="net_4 width_1"/><circle cx="306" cy="327.5" r="2" style="fill:#000" class="net_4 width_1"/><line x1="306" x2="336.3333333333333" y1="327.5" y2="327.5" class="net_4 width_1" style="stroke-width: 1"/><line x1="295" x2="306" y1="252.5" y2="252.5" class="net_4 width_1" style="stroke-width: 1"/><line x1="306" x2="306" y1="252.5" y2="402.5" class="net_4 width_1" style="stroke-width: 1"/><line x1="306" x2="336.3333333333333" y1="402.5" y2="402.5" class="net_4 width_1" style="stroke-width: 1"/><line x1="295" x2="336.3333333333333" y1="252.5" y2="252.5" class="net_4 width_1" style="stroke-width: 1"/><line x1="295" x2="306" y1="252.5" y2="252.5" class="net_4 width_1" style="stroke-width: 1"/><line x1="306" x2="306" y1="252.5" y2="167.5" class="net_4 width_1" style="stroke-width: 1"/><line x1="306" x2="415" y1="167.5" y2="167.5" class="net_4 width_1" style="stroke-width: 1"/><line x1="293" x2="336.3333333333333" y1="307.5" y2="307.5" class="net_62 width_1" style="stroke-width: 1"/><line x1="293" x2="336.3333333333333" y1="382.5" y2="382.5" class="net_63 width_1" style="stroke-width: 1"/><line x1="293" x2="316" y1="187.5" y2="187.5" class="net_61 width_1" style="stroke-width: 1"/><line x1="316" x2="316" y1="187.5" y2="232.5" class="net_61 width_1" style="stroke-width: 1"/><line x1="316" x2="336.3333333333333" y1="232.5" y2="232.5" class="net_61 width_1" style="stroke-width: 1"/><line x1="368.3333333333333" x2="415" y1="307.5" y2="307.5" class="net_6 width_1" style="stroke-width: 1"/><line x1="368.3333333333333" x2="415" y1="382.5" y2="382.5" class="net_7 width_1" style="stroke-width: 1"/><line x1="368.3333333333333" x2="415" y1="232.5" y2="232.5" class="net_8 width_1" style="stroke-width: 1"/><line x1="105" x2="154" y1="322.5" y2="322.5" class="net_53,54,55,56,57,58,59 width_7" style="stroke-width: 2"/><line x1="154" x2="154" y1="322.5" y2="573.5" class="net_53,54,55,56,57,58,59 width_7" style="stroke-width: 2"/><line x1="154" x2="205" y1="573.5" y2="573.5" class="net_53,54,55,56,57,58,59 width_7" style="stroke-width: 2"/><line x1="205" x2="205" y1="573.5" y2="614.5" class="net_53,54,55,56,57,58,59 width_7" style="stroke-width: 2"/><line x1="205" x2="284" y1="614.5" y2="614.5" class="net_53,54,55,56,57,58,59 width_7" style="stroke-width: 2"/><line x1="194" x2="284" y1="634.5" y2="634.5" class="net_3 width_1" style="stroke-width: 1"/><line x1="446" x2="456" y1="624.5" y2="624.5" class="net_60,53,54,55,56,57,58,59 width_8" style="stroke-width: 2"/><line x1="456" x2="456" y1="624.5" y2="683" class="net_60,53,54,55,56,57,58,59 width_8" style="stroke-width: 2"/><line x1="456" x2="78" y1="683" y2="683" class="net_60,53,54,55,56,57,58,59 width_8" style="stroke-width: 2"/><line x1="78" x2="78" y1="683" y2="332.5" class="net_60,53,54,55,56,57,58,59 width_8" style="stroke-width: 2"/><line x1="78" x2="100" y1="332.5" y2="332.5" class="net_60,53,54,55,56,57,58,59 width_8" style="stroke-width: 2"/><rect x="178.5" y="11" width="22" height="9" class="net_9,10,11,12,13,14,15,16,17,18,19,20,21,22,23,24,25,26,27,28,29 width_21 busLabel_21" style="fill: white; stroke: none"/><text x="177.5" y="19" class="net_9,10,11,12,13,14,15,16,17,18,19,20,21,22,23,24,25,26,27,28,29 width_21 busLabel_21">/21/</text><rect x="178.5" y="11" width="22" height="9" class="net_9,10,11,12,13,14,15,16,17,18,19,20,21,22,23,24,25,26,27,28,29 width_21 busLabel_21" style="fill: white; stroke: none"/><text x="177.5" y="19" class="net_9,10,11,12,13,14,15,16,17,18,19,20,21,22,23,24,25,26,27,28,29 width_21 busLabel_21">/21/</text><rect x="354" y="50.5" width="22" height="9" class="net_30,31,32,33,34,35,36,37,38,39,40,41,42,43,44,45,46,47,48,49,50 width_21 busLabel_21" style="fill: white; stroke: none"/><text x="353" y="58.5" class="net_30,31,32,33,34,35,36,37,38,39,40,41,42,43,44,45,46,47,48,49,50 width_21 busLabel_21">/21/</text><rect x="107.5" y="487.5" width="22" height="9" class="net_14,15,16,17,18,19,20,21,22,23,24,25,26,27,28,29 width_16 busLabel_16" style="fill: white; stroke: none"/><text x="106.5" y="495.5" class="net_14,15,16,17,18,19,20,21,22,23,24,25,26,27,28,29 width_16 busLabel_16">/16/</text><rect x="107.5" y="487.5" width="22" height="9" class="net_14,15,16,17,18,19,20,21,22,23,24,25,26,27,28,29 width_16 busLabel_16" style="fill: white; stroke: none"/><text x="106.5" y="495.5" class="net_14,15,16,17,18,19,20,21,22,23,24,25,26,27,28,29 width_16 busLabel_16">/16/</text><rect x="107.5" y="177.5" width="22" height="9" class="net_65,66,67,68,69,70,71,72,73,74,75,76,77,78,79,80 width_16 busLabel_16" style="fill: white; stroke: none"/><text x="106.5" y="185.5" class="net_65,66,67,68,69,70,71,72,73,74,75,76,77,78,79,80 width_16 busLabel_16">/16/</text><rect x="178.5" y="548.5" width="16" height="9" class="net_83,84,85,86 width_4 busLabel_4" style="fill: white; stroke: none"/><text x="177.5" y="556.5" class="net_83,84,85,86 width_4 busLabel_4">/4/</text><rect x="354" y="619.5" width="16" height="9" class="net_53,54,55,56,57,58,59,3 width_8 busLabel_8" style="fill: white; stroke: none"/><text x="353" y="627.5" class="net_53,54,55,56,57,58,59,3 width_8 busLabel_8">/8/</text><rect x="178.5" y="568.5" width="16" height="9" class="net_53,54,55,56,57,58,59 width_7 busLabel_7" style="fill: white; stroke: none"/><text x="177.5" y="576.5" class="net_53,54,55,56,57,58,59 width_7 busLabel_7">/7/</text><rect x="279.5" y="678" width="16" height="9" class="net_60,53,54,55,56,57,58,59 width_8 busLabel_8" style="fill: white; stroke: none"/><text x="278.5" y="686" class="net_60,53,54,55,56,57,58,59 width_8 busLabel_8">/8/</text></svg>