<svg xmlns="http://www.w3.org/2000/svg" xmlns:xlink="http://www.w3.org/1999/xlink" xmlns:s="https://github.com/nturley/netlistsvg" width="858" height="811"><style>svg {
  stroke:#000;
  fill:none;
}
text {
  fill:#000;
  stroke:none;
  font-size:10px;
  font-weight: bold;
  font-family: "Courier New", monospace;
}
line {
    stroke-linecap: round;
}
.nodelabel {
  text-anchor: middle;
}
.inputPortLabel {
  text-anchor: end;
}
.splitjoinBody {
  fill:#000;
}</style><g s:type="lt" transform="translate(400.3333333333333,523.5)" s:width="25" s:height="25" id="cell_\10"><s:alias val="$lt"/><circle r="12.5" cx="12.5" cy="12.5" class="cell_\10"/><line x1="6" x2="17" y1="12" y2="7" class="cell_\10"/><line x1="6" x2="17" y1="12" y2="17" class="cell_\10"/><g s:x="2" s:y="5" s:pid="A"/><g s:x="2" s:y="20" s:pid="B"/><g s:x="25" s:y="12.5" s:pid="Y"/></g><g s:type="and" transform="translate(464,516)" s:width="30" s:height="25" id="cell_\11"><s:alias val="$and"/><s:alias val="$logic_and"/><s:alias val="$_AND_"/><path d="M0,0 L0,25 L15,25 A15 12.5 0 0 0 15,0 Z" class="cell_\11"/><g s:x="0" s:y="5" s:pid="A"/><g s:x="0" s:y="20" s:pid="B"/><g s:x="30" s:y="12.5" s:pid="Y"/></g><g s:type="gt" transform="translate(465.6666666666667,602)" s:width="25" s:height="25" id="cell_\13"><s:alias val="$gt"/><circle r="12" cx="12" cy="12" class="cell_\13"/><line x1="8" x2="19" y1="7" y2="12" class="cell_\13"/><line x1="8" x2="19" y1="17" y2="12" class="cell_\13"/><g s:x="2" s:y="5" s:pid="A"/><g s:x="2" s:y="20" s:pid="B"/><g s:x="25" s:y="12.5" s:pid="Y"/></g><g s:type="and" transform="translate(529.6666666666666,594.5)" s:width="30" s:height="25" id="cell_\14"><s:alias val="$and"/><s:alias val="$logic_and"/><s:alias val="$_AND_"/><path d="M0,0 L0,25 L15,25 A15 12.5 0 0 0 15,0 Z" class="cell_\14"/><g s:x="0" s:y="5" s:pid="A"/><g s:x="0" s:y="20" s:pid="B"/><g s:x="30" s:y="12.5" s:pid="Y"/></g><g s:type="lt" transform="translate(531.3333333333334,732)" s:width="25" s:height="25" id="cell_\16"><s:alias val="$lt"/><circle r="12.5" cx="12.5" cy="12.5" class="cell_\16"/><line x1="6" x2="17" y1="12" y2="7" class="cell_\16"/><line x1="6" x2="17" y1="12" y2="17" class="cell_\16"/><g s:x="2" s:y="5" s:pid="A"/><g s:x="2" s:y="20" s:pid="B"/><g s:x="25" s:y="12.5" s:pid="Y"/></g><g s:type="and" transform="translate(595.3333333333334,724.5)" s:width="30" s:height="25" id="cell_\17"><s:alias val="$and"/><s:alias val="$logic_and"/><s:alias val="$_AND_"/><path d="M0,0 L0,25 L15,25 A15 12.5 0 0 0 15,0 Z" class="cell_\17"/><g s:x="0" s:y="5" s:pid="A"/><g s:x="0" s:y="20" s:pid="B"/><g s:x="30" s:y="12.5" s:pid="Y"/></g><g s:type="mux" transform="translate(665,649.5)" s:width="20" s:height="40" id="cell_\20"><s:alias val="$pmux"/><s:alias val="$mux"/><s:alias val="$_MUX_"/><path d="M0,0 L20,10 L20,30 L0,40 Z" class="cell_\20"/><text x="5" y="32" class="nodelabel cell_\20" s:attribute="">1</text><text x="5" y="13" class="nodelabel cell_\20" s:attribute="">0</text><g s:x="0" s:y="10" s:pid="A"/><g s:x="0" s:y="30" s:pid="B"/><g s:x="10" s:y="35" s:pid="S"/><g s:x="20" s:y="20" s:pid="Y"/></g><g s:type="eq" transform="translate(663.3333333333334,382.5)" s:width="25" s:height="25" id="cell_\22"><s:alias val="$eq"/><circle r="12.5" cx="12.5" cy="12.5" class="cell_\22"/><line x1="7.5" x2="17.5" y1="10" y2="10" class="cell_\22"/><line x1="7.5" x2="17.5" y1="15" y2="15" class="cell_\22"/><g s:x="2" s:y="5" s:pid="A"/><g s:x="2" s:y="20" s:pid="B"/><g s:x="25" s:y="12.5" s:pid="Y"/></g><g s:type="not" transform="translate(662,442.5)" s:width="30" s:height="20" id="cell_\24"><s:alias val="$_NOT_"/><s:alias val="$not"/><s:alias val="$logic_not"/><path d="M0,0 L0,20 L20,10 Z" class="cell_\24"/><circle cx="24" cy="10" r="3" class="cell_\24"/><g s:x="-1" s:y="10" s:pid="A"/><g s:x="27" s:y="10" s:pid="Y"/></g><g s:type="and" transform="translate(728,432.5)" s:width="30" s:height="25" id="cell_\25"><s:alias val="$and"/><s:alias val="$logic_and"/><s:alias val="$_AND_"/><path d="M0,0 L0,25 L15,25 A15 12.5 0 0 0 15,0 Z" class="cell_\25"/><g s:x="0" s:y="5" s:pid="A"/><g s:x="0" s:y="20" s:pid="B"/><g s:x="30" s:y="12.5" s:pid="Y"/></g><g s:type="not" transform="translate(399,288)" s:width="30" s:height="20" id="cell_\26"><s:alias val="$_NOT_"/><s:alias val="$not"/><s:alias val="$logic_not"/><path d="M0,0 L0,20 L20,10 Z" class="cell_\26"/><circle cx="24" cy="10" r="3" class="cell_\26"/><g s:x="-1" s:y="10" s:pid="A"/><g s:x="27" s:y="10" s:pid="Y"/></g><g s:type="not" transform="translate(230,257)" s:width="30" s:height="20" id="cell_\27"><s:alias val="$_NOT_"/><s:alias val="$not"/><s:alias val="$logic_not"/><path d="M0,0 L0,20 L20,10 Z" class="cell_\27"/><circle cx="24" cy="10" r="3" class="cell_\27"/><g s:x="-1" s:y="10" s:pid="A"/><g s:x="27" s:y="10" s:pid="Y"/></g><g s:type="and" transform="translate(595.3333333333334,247)" s:width="30" s:height="25" id="cell_\28"><s:alias val="$and"/><s:alias val="$logic_and"/><s:alias val="$_AND_"/><path d="M0,0 L0,25 L15,25 A15 12.5 0 0 0 15,0 Z" class="cell_\28"/><g s:x="0" s:y="5" s:pid="A"/><g s:x="0" s:y="20" s:pid="B"/><g s:x="30" s:y="12.5" s:pid="Y"/></g><g s:type="gt" transform="translate(400.3333333333333,367.5)" s:width="25" s:height="25" id="cell_\31"><s:alias val="$gt"/><circle r="12" cx="12" cy="12" class="cell_\31"/><line x1="8" x2="19" y1="7" y2="12" class="cell_\31"/><line x1="8" x2="19" y1="17" y2="12" class="cell_\31"/><g s:x="2" s:y="5" s:pid="A"/><g s:x="2" s:y="20" s:pid="B"/><g s:x="25" s:y="12.5" s:pid="Y"/></g><g s:type="and" transform="translate(464,360)" s:width="30" s:height="25" id="cell_\32"><s:alias val="$and"/><s:alias val="$logic_and"/><s:alias val="$_AND_"/><path d="M0,0 L0,25 L15,25 A15 12.5 0 0 0 15,0 Z" class="cell_\32"/><g s:x="0" s:y="5" s:pid="A"/><g s:x="0" s:y="20" s:pid="B"/><g s:x="30" s:y="12.5" s:pid="Y"/></g><g s:type="sub" transform="translate(400.3333333333333,232)" s:width="25" s:height="25" id="cell_\34"><s:alias val="$sub"/><circle r="12.5" cx="12.5" cy="12.5" class="cell_\34"/><line x1="7.5" x2="17.5" y1="12.5" y2="12.5" class="cell_\34"/><g s:x="2" s:y="5" s:pid="A"/><g s:x="2" s:y="20" s:pid="B"/><g s:x="25" s:y="12.5" s:pid="Y"/></g><g s:type="lt" transform="translate(230,152)" s:width="25" s:height="25" id="cell_\37"><s:alias val="$lt"/><circle r="12.5" cx="12.5" cy="12.5" class="cell_\37"/><line x1="6" x2="17" y1="12" y2="7" class="cell_\37"/><line x1="6" x2="17" y1="12" y2="17" class="cell_\37"/><g s:x="2" s:y="5" s:pid="A"/><g s:x="2" s:y="20" s:pid="B"/><g s:x="25" s:y="12.5" s:pid="Y"/></g><g s:type="and" transform="translate(320,144.5)" s:width="30" s:height="25" id="cell_\38"><s:alias val="$and"/><s:alias val="$logic_and"/><s:alias val="$_AND_"/><path d="M0,0 L0,25 L15,25 A15 12.5 0 0 0 15,0 Z" class="cell_\38"/><g s:x="0" s:y="5" s:pid="A"/><g s:x="0" s:y="20" s:pid="B"/><g s:x="30" s:y="12.5" s:pid="Y"/></g><g s:type="add" transform="translate(230,72)" s:width="25" s:height="25" id="cell_\40"><s:alias val="$add"/><circle r="12.5" cx="12.5" cy="12.5" class="cell_\40"/><line x1="7.5" x2="17.5" y1="12.5" y2="12.5" class="cell_\40"/><line x1="12.5" x2="12.5" y1="7.5" y2="17.5" class="cell_\40"/><g s:x="2" s:y="5" s:pid="A"/><g s:x="2" s:y="20" s:pid="B"/><g s:x="26" s:y="12.5" s:pid="Y"/></g><g s:type="mux-bus" transform="translate(400.6666666666667,54.5)" s:width="24" s:height="40" id="cell_\41"><s:alias val="$pmux-bus"/><s:alias val="$mux-bus"/><s:alias val="$_MUX_-bus"/><path d="M0,0 L20,10 L20,30 L0,40 Z" class="cell_\41"/><path d="M4,2 L4,0 L22,9 L22,31 L4,40 L4,38" class="cell_\41"/><path d="M8,2 L8,0 L24,8 L24,32 L8,40 L8,38" class="cell_\41"/><text x="5" y="32" class="nodelabel cell_\41" s:attribute="">1</text><text x="5" y="13" class="nodelabel cell_\41" s:attribute="">0</text><g s:x="-1" s:y="10" s:pid="A"/><g s:x="-1" s:y="30" s:pid="B"/><g s:x="12" s:y="38" s:pid="S"/><g s:x="24.5" s:y="20" s:pid="Y"/></g><g s:type="mux-bus" transform="translate(531.6666666666666,82.5)" s:width="24" s:height="40" id="cell_\42"><s:alias val="$pmux-bus"/><s:alias val="$mux-bus"/><s:alias val="$_MUX_-bus"/><path d="M0,0 L20,10 L20,30 L0,40 Z" class="cell_\42"/><path d="M4,2 L4,0 L22,9 L22,31 L4,40 L4,38" class="cell_\42"/><path d="M8,2 L8,0 L24,8 L24,32 L8,40 L8,38" class="cell_\42"/><text x="5" y="32" class="nodelabel cell_\42" s:attribute="">1</text><text x="5" y="13" class="nodelabel cell_\42" s:attribute="">0</text><g s:x="-1" s:y="10" s:pid="A"/><g s:x="-1" s:y="30" s:pid="B"/><g s:x="12" s:y="38" s:pid="S"/><g s:x="24.5" s:y="20" s:pid="Y"/></g><g s:type="mux-bus" transform="translate(663.6666666666666,103.5)" s:width="24" s:height="40" id="cell_\43"><s:alias val="$pmux-bus"/><s:alias val="$mux-bus"/><s:alias val="$_MUX_-bus"/><path d="M0,0 L20,10 L20,30 L0,40 Z" class="cell_\43"/><path d="M4,2 L4,0 L22,9 L22,31 L4,40 L4,38" class="cell_\43"/><path d="M8,2 L8,0 L24,8 L24,32 L8,40 L8,38" class="cell_\43"/><text x="5" y="32" class="nodelabel cell_\43" s:attribute="">1</text><text x="5" y="13" class="nodelabel cell_\43" s:attribute="">0</text><g s:x="-1" s:y="10" s:pid="A"/><g s:x="-1" s:y="30" s:pid="B"/><g s:x="12" s:y="38" s:pid="S"/><g s:x="24.5" s:y="20" s:pid="Y"/></g><g s:type="dff" transform="translate(728,742)" s:width="30" s:height="40" id="cell_\48"><s:alias val="$dff"/><s:alias val="$_DFF_"/><s:alias val="$_DFF_P_"/><s:alias val="dff-bus"/><s:alias val="$dff-bus"/><s:alias val="$_DFF_-bus"/><s:alias val="$_DFF_P_-bus"/><rect width="30" height="40" x="0" y="0" class="cell_\48"/><path d="M0,35 L5,30 L0,25" class="cell_\48"/><g s:x="31" s:y="10" s:pid="Q"/><g s:x="-1" s:y="30" s:pid="CLK"/><g s:x="-1" s:y="30" s:pid="C"/><g s:x="-1" s:y="10" s:pid="D"/></g><g s:type="mux-bus" transform="translate(795,93.5)" s:width="24" s:height="40" id="cell_\49"><s:alias val="$pmux-bus"/><s:alias val="$mux-bus"/><s:alias val="$_MUX_-bus"/><path d="M0,0 L20,10 L20,30 L0,40 Z" class="cell_\49"/><path d="M4,2 L4,0 L22,9 L22,31 L4,40 L4,38" class="cell_\49"/><path d="M8,2 L8,0 L24,8 L24,32 L8,40 L8,38" class="cell_\49"/><text x="5" y="32" class="nodelabel cell_\49" s:attribute="">1</text><text x="5" y="13" class="nodelabel cell_\49" s:attribute="">0</text><g s:x="-1" s:y="10" s:pid="A"/><g s:x="-1" s:y="30" s:pid="B"/><g s:x="12" s:y="38" s:pid="S"/><g s:x="24.5" s:y="20" s:pid="Y"/></g><g s:type="dff" transform="translate(78,603.5)" s:width="30" s:height="40" id="cell_\50"><s:alias val="$dff"/><s:alias val="$_DFF_"/><s:alias val="$_DFF_P_"/><s:alias val="dff-bus"/><s:alias val="$dff-bus"/><s:alias val="$_DFF_-bus"/><s:alias val="$_DFF_P_-bus"/><rect width="30" height="40" x="0" y="0" class="cell_\50"/><path d="M0,35 L5,30 L0,25" class="cell_\50"/><g s:x="31" s:y="10" s:pid="Q"/><g s:x="-1" s:y="30" s:pid="CLK"/><g s:x="-1" s:y="30" s:pid="C"/><g s:x="-1" s:y="10" s:pid="D"/></g><g s:type="sub" transform="translate(230,573.5)" s:width="25" s:height="25" id="cell_\6"><s:alias val="$sub"/><circle r="12.5" cx="12.5" cy="12.5" class="cell_\6"/><line x1="7.5" x2="17.5" y1="12.5" y2="12.5" class="cell_\6"/><g s:x="2" s:y="5" s:pid="A"/><g s:x="2" s:y="20" s:pid="B"/><g s:x="25" s:y="12.5" s:pid="Y"/></g><g s:type="gt" transform="translate(400.3333333333333,463.5)" s:width="25" s:height="25" id="cell_\7"><s:alias val="$gt"/><circle r="12" cx="12" cy="12" class="cell_\7"/><line x1="8" x2="19" y1="7" y2="12" class="cell_\7"/><line x1="8" x2="19" y1="17" y2="12" class="cell_\7"/><g s:x="2" s:y="5" s:pid="A"/><g s:x="2" s:y="20" s:pid="B"/><g s:x="25" s:y="12.5" s:pid="Y"/></g><g s:type="add" transform="translate(230,678.5)" s:width="25" s:height="25" id="cell_\9"><s:alias val="$add"/><circle r="12.5" cx="12.5" cy="12.5" class="cell_\9"/><line x1="7.5" x2="17.5" y1="12.5" y2="12.5" class="cell_\9"/><line x1="12.5" x2="12.5" y1="7.5" y2="17.5" class="cell_\9"/><g s:x="2" s:y="5" s:pid="A"/><g s:x="2" s:y="20" s:pid="B"/><g s:x="26" s:y="12.5" s:pid="Y"/></g><g s:type="inputExt" transform="translate(316,288)" s:width="30" s:height="20" id="cell_left"><text x="15" y="-4" class="nodelabel cell_left" s:attribute="ref">left</text><s:alias val="$_inputExt_"/><path d="M0,0 L0,20 L15,20 L30,10 L15,0 Z" class="cell_left"/><g s:x="30" s:y="10" s:pid="Y"/></g><g s:type="inputExt" transform="translate(159,257)" s:width="30" s:height="20" id="cell_right"><text x="15" y="-4" class="nodelabel cell_right" s:attribute="ref">right</text><s:alias val="$_inputExt_"/><path d="M0,0 L0,20 L15,20 L30,10 L15,0 Z" class="cell_right"/><g s:x="30" s:y="10" s:pid="Y"/></g><g s:type="inputExt" transform="translate(12,762)" s:width="30" s:height="20" id="cell_clk"><text x="15" y="-4" class="nodelabel cell_clk" s:attribute="ref">clk</text><s:alias val="$_inputExt_"/><path d="M0,0 L0,20 L15,20 L30,10 L15,0 Z" class="cell_clk"/><g s:x="30" s:y="10" s:pid="Y"/></g><g s:type="inputExt" transform="translate(224,518.5)" s:width="30" s:height="20" id="cell_vga_row"><text x="15" y="-4" class="nodelabel cell_vga_row" s:attribute="ref">vga_row</text><s:alias val="$_inputExt_"/><path d="M0,0 L0,20 L15,20 L30,10 L15,0 Z" class="cell_vga_row"/><g s:x="30" s:y="10" s:pid="Y"/></g><g s:type="inputExt" transform="translate(316,632)" s:width="30" s:height="20" id="cell_vga_col"><text x="15" y="-4" class="nodelabel cell_vga_col" s:attribute="ref">vga_col</text><s:alias val="$_inputExt_"/><path d="M0,0 L0,20 L15,20 L30,10 L15,0 Z" class="cell_vga_col"/><g s:x="30" s:y="10" s:pid="Y"/></g><g s:type="outputExt" transform="translate(794,742)" s:width="30" s:height="20" id="cell_display"><text x="15" y="-4" class="nodelabel cell_display" s:attribute="ref">display</text><s:alias val="$_outputExt_"/><path d="M30,0 L30,20 L15,20 L0,10 L15,0 Z" class="cell_display"/><g s:x="0" s:y="10" s:pid="A"/></g><g s:type="constant" transform="translate(316,742)" s:width="30" s:height="20" id="cell_110111000"><text x="15" y="-4" class="nodelabel cell_110111000" s:attribute="ref">0x1b8</text><s:alias val="$_constant_"/><rect width="30" height="20" class="cell_110111000"/><g s:x="31" s:y="10" s:pid="Y"/></g><g s:type="constant" transform="translate(398,742)" s:width="30" s:height="20" id="cell_111000111"><text x="15" y="-4" class="nodelabel cell_111000111" s:attribute="ref">0x1c7</text><s:alias val="$_constant_"/><rect width="30" height="20" class="cell_111000111"/><g s:x="31" s:y="10" s:pid="Y"/></g><g s:type="constant" transform="translate(595,604.5)" s:width="30" s:height="20" id="cell_0"><text x="15" y="-4" class="nodelabel cell_0" s:attribute="ref">0</text><s:alias val="$_constant_"/><rect width="30" height="20" class="cell_0"/><g s:x="31" s:y="10" s:pid="Y"/></g><g s:type="constant" transform="translate(595,669.5)" s:width="30" s:height="20" id="cell_1"><text x="15" y="-4" class="nodelabel cell_1" s:attribute="ref">1</text><s:alias val="$_constant_"/><rect width="30" height="20" class="cell_1"/><g s:x="31" s:y="10" s:pid="Y"/></g><g s:type="constant" transform="translate(529,392.5)" s:width="30" s:height="20" id="cell_1000001100"><text x="15" y="-4" class="nodelabel cell_1000001100" s:attribute="ref">0x20c</text><s:alias val="$_constant_"/><rect width="30" height="20" class="cell_1000001100"/><g s:x="31" s:y="10" s:pid="Y"/></g><g s:type="constant" transform="translate(78,688.5)" s:width="30" s:height="20" id="cell_110010"><text x="15" y="-4" class="nodelabel cell_110010" s:attribute="ref">0x32</text><s:alias val="$_constant_"/><rect width="30" height="20" class="cell_110010"/><g s:x="31" s:y="10" s:pid="Y"/></g><g s:type="constant" transform="translate(78,337.5)" s:width="30" s:height="20" id="cell_10"><text x="15" y="-4" class="nodelabel cell_10" s:attribute="ref">10</text><s:alias val="$_constant_"/><rect width="30" height="20" class="cell_10"/><g s:x="31" s:y="10" s:pid="Y"/></g><g s:type="constant" transform="translate(78,548.5)" s:width="30" s:height="20" id="cell_1001001110"><text x="15" y="-4" class="nodelabel cell_1001001110" s:attribute="ref">0x24e</text><s:alias val="$_constant_"/><rect width="30" height="20" class="cell_1001001110"/><g s:x="31" s:y="10" s:pid="Y"/></g><line x1="254" x2="402.3333333333333" y1="528.5" y2="528.5" class="net_5,6,7,8,9,10,11,12,13,14 width_10" style="stroke-width: 2"/><line x1="254" x2="296" y1="528.5" y2="528.5" class="net_5,6,7,8,9,10,11,12,13,14 width_10" style="stroke-width: 2"/><line x1="296" x2="296" y1="528.5" y2="319" class="net_5,6,7,8,9,10,11,12,13,14 width_10" style="stroke-width: 2"/><line x1="296" x2="636" y1="319" y2="319" class="net_5,6,7,8,9,10,11,12,13,14 width_10" style="stroke-width: 2"/><line x1="636" x2="636" y1="319" y2="387.5" class="net_5,6,7,8,9,10,11,12,13,14 width_10" style="stroke-width: 2"/><circle cx="296" cy="528.5" r="3" style="fill:#000" class="net_5,6,7,8,9,10,11,12,13,14 width_10"/><line x1="636" x2="665.3333333333334" y1="387.5" y2="387.5" class="net_5,6,7,8,9,10,11,12,13,14 width_10" style="stroke-width: 2"/><line x1="254" x2="296" y1="528.5" y2="528.5" class="net_5,6,7,8,9,10,11,12,13,14 width_10" style="stroke-width: 2"/><line x1="296" x2="296" y1="528.5" y2="463.5" class="net_5,6,7,8,9,10,11,12,13,14 width_10" style="stroke-width: 2"/><line x1="296" x2="378" y1="463.5" y2="463.5" class="net_5,6,7,8,9,10,11,12,13,14 width_10" style="stroke-width: 2"/><line x1="378" x2="378" y1="463.5" y2="468.5" class="net_5,6,7,8,9,10,11,12,13,14 width_10" style="stroke-width: 2"/><circle cx="296" cy="463.5" r="3" style="fill:#000" class="net_5,6,7,8,9,10,11,12,13,14 width_10"/><line x1="378" x2="402.3333333333333" y1="468.5" y2="468.5" class="net_5,6,7,8,9,10,11,12,13,14 width_10" style="stroke-width: 2"/><line x1="256" x2="378" y1="691" y2="691" class="net_26,27,28,29,30,31,32,33,34,35 width_10" style="stroke-width: 2"/><line x1="378" x2="378" y1="691" y2="543.5" class="net_26,27,28,29,30,31,32,33,34,35 width_10" style="stroke-width: 2"/><line x1="378" x2="402.3333333333333" y1="543.5" y2="543.5" class="net_26,27,28,29,30,31,32,33,34,35 width_10" style="stroke-width: 2"/><line x1="425.3333333333333" x2="439" y1="476" y2="476" class="net_37 width_1" style="stroke-width: 1"/><line x1="439" x2="439" y1="476" y2="521" class="net_37 width_1" style="stroke-width: 1"/><line x1="439" x2="464" y1="521" y2="521" class="net_37 width_1" style="stroke-width: 1"/><line x1="425.3333333333333" x2="464" y1="536" y2="536" class="net_36 width_1" style="stroke-width: 1"/><line x1="346" x2="368" y1="642" y2="642" class="net_15,16,17,18,19,20,21,22,23,24 width_10" style="stroke-width: 2"/><line x1="368" x2="368" y1="642" y2="602" class="net_15,16,17,18,19,20,21,22,23,24 width_10" style="stroke-width: 2"/><line x1="368" x2="439" y1="602" y2="602" class="net_15,16,17,18,19,20,21,22,23,24 width_10" style="stroke-width: 2"/><line x1="439" x2="439" y1="602" y2="607" class="net_15,16,17,18,19,20,21,22,23,24 width_10" style="stroke-width: 2"/><circle cx="368" cy="642" r="3" style="fill:#000" class="net_15,16,17,18,19,20,21,22,23,24 width_10"/><circle cx="368" cy="602" r="3" style="fill:#000" class="net_15,16,17,18,19,20,21,22,23,24 width_10"/><line x1="439" x2="467.6666666666667" y1="607" y2="607" class="net_15,16,17,18,19,20,21,22,23,24 width_10" style="stroke-width: 2"/><line x1="346" x2="504" y1="642" y2="642" class="net_15,16,17,18,19,20,21,22,23,24 width_10" style="stroke-width: 2"/><line x1="504" x2="504" y1="642" y2="737" class="net_15,16,17,18,19,20,21,22,23,24 width_10" style="stroke-width: 2"/><line x1="504" x2="533.3333333333334" y1="737" y2="737" class="net_15,16,17,18,19,20,21,22,23,24 width_10" style="stroke-width: 2"/><line x1="346" x2="368" y1="642" y2="642" class="net_15,16,17,18,19,20,21,22,23,24 width_10" style="stroke-width: 2"/><line x1="368" x2="368" y1="642" y2="452.5" class="net_15,16,17,18,19,20,21,22,23,24 width_10" style="stroke-width: 2"/><line x1="368" x2="661" y1="452.5" y2="452.5" class="net_15,16,17,18,19,20,21,22,23,24 width_10" style="stroke-width: 2"/><line x1="347" x2="388" y1="752" y2="752" class="net_134,135,136,137,138,139,140,141,142 width_9" style="stroke-width: 2"/><line x1="388" x2="388" y1="752" y2="622" class="net_134,135,136,137,138,139,140,141,142 width_9" style="stroke-width: 2"/><line x1="388" x2="467.6666666666667" y1="622" y2="622" class="net_134,135,136,137,138,139,140,141,142 width_9" style="stroke-width: 2"/><line x1="494" x2="504" y1="528.5" y2="528.5" class="net_38 width_1" style="stroke-width: 1"/><line x1="504" x2="504" y1="528.5" y2="599.5" class="net_38 width_1" style="stroke-width: 1"/><line x1="504" x2="529.6666666666666" y1="599.5" y2="599.5" class="net_38 width_1" style="stroke-width: 1"/><line x1="490.6666666666667" x2="529.6666666666666" y1="614.5" y2="614.5" class="net_39 width_1" style="stroke-width: 1"/><line x1="429" x2="533.3333333333334" y1="752" y2="752" class="net_143,144,145,146,147,148,149,150,151 width_9" style="stroke-width: 2"/><line x1="559.6666666666666" x2="570" y1="607" y2="607" class="net_40 width_1" style="stroke-width: 1"/><line x1="570" x2="570" y1="607" y2="729.5" class="net_40 width_1" style="stroke-width: 1"/><line x1="570" x2="595.3333333333334" y1="729.5" y2="729.5" class="net_40 width_1" style="stroke-width: 1"/><line x1="556.3333333333334" x2="595.3333333333334" y1="744.5" y2="744.5" class="net_41 width_1" style="stroke-width: 1"/><line x1="626" x2="636" y1="614.5" y2="614.5" class="net_152 width_1" style="stroke-width: 1"/><line x1="636" x2="636" y1="614.5" y2="659.5" class="net_152 width_1" style="stroke-width: 1"/><line x1="636" x2="665" y1="659.5" y2="659.5" class="net_152 width_1" style="stroke-width: 1"/><line x1="626" x2="665" y1="679.5" y2="679.5" class="net_153 width_1" style="stroke-width: 1"/><line x1="625.3333333333334" x2="675" y1="737" y2="737" class="net_42 width_1" style="stroke-width: 1"/><line x1="675" x2="675" y1="737" y2="684.5" class="net_42 width_1" style="stroke-width: 1"/><line x1="560" x2="665.3333333333334" y1="402.5" y2="402.5" class="net_154,155,156,157,158,159,160,161,162,163 width_10" style="stroke-width: 2"/><line x1="688.3333333333334" x2="702" y1="395" y2="395" class="net_44 width_1" style="stroke-width: 1"/><line x1="702" x2="702" y1="395" y2="437.5" class="net_44 width_1" style="stroke-width: 1"/><line x1="702" x2="728" y1="437.5" y2="437.5" class="net_44 width_1" style="stroke-width: 1"/><line x1="689" x2="728" y1="452.5" y2="452.5" class="net_45 width_1" style="stroke-width: 1"/><line x1="346" x2="398" y1="298" y2="298" class="net_2 width_1" style="stroke-width: 1"/><line x1="189" x2="229" y1="267" y2="267" class="net_3 width_1" style="stroke-width: 1"/><line x1="426" x2="439" y1="298" y2="298" class="net_47 width_1" style="stroke-width: 1"/><line x1="439" x2="439" y1="298" y2="256" class="net_47 width_1" style="stroke-width: 1"/><line x1="439" x2="570" y1="256" y2="256" class="net_47 width_1" style="stroke-width: 1"/><line x1="570" x2="570" y1="256" y2="252" class="net_47 width_1" style="stroke-width: 1"/><circle cx="439" cy="298" r="2" style="fill:#000" class="net_47 width_1"/><line x1="570" x2="595.3333333333334" y1="252" y2="252" class="net_47 width_1" style="stroke-width: 1"/><line x1="426" x2="439" y1="298" y2="298" class="net_47 width_1" style="stroke-width: 1"/><line x1="439" x2="439" y1="298" y2="365" class="net_47 width_1" style="stroke-width: 1"/><line x1="439" x2="464" y1="365" y2="365" class="net_47 width_1" style="stroke-width: 1"/><line x1="257" x2="595.3333333333334" y1="267" y2="267" class="net_48 width_1" style="stroke-width: 1"/><line x1="257" x2="276" y1="267" y2="267" class="net_48 width_1" style="stroke-width: 1"/><line x1="276" x2="276" y1="267" y2="149.5" class="net_48 width_1" style="stroke-width: 1"/><circle cx="276" cy="267" r="2" style="fill:#000" class="net_48 width_1"/><line x1="276" x2="320" y1="149.5" y2="149.5" class="net_48 width_1" style="stroke-width: 1"/><line x1="109" x2="139" y1="613.5" y2="613.5" class="net_50,51,52,53,54,55,56,57,58,59 width_10" style="stroke-width: 2"/><line x1="139" x2="139" y1="613.5" y2="367.5" class="net_50,51,52,53,54,55,56,57,58,59 width_10" style="stroke-width: 2"/><line x1="139" x2="368" y1="367.5" y2="367.5" class="net_50,51,52,53,54,55,56,57,58,59 width_10" style="stroke-width: 2"/><line x1="368" x2="368" y1="367.5" y2="372.5" class="net_50,51,52,53,54,55,56,57,58,59 width_10" style="stroke-width: 2"/><circle cx="139" cy="613.5" r="3" style="fill:#000" class="net_50,51,52,53,54,55,56,57,58,59 width_10"/><circle cx="139" cy="367.5" r="3" style="fill:#000" class="net_50,51,52,53,54,55,56,57,58,59 width_10"/><line x1="368" x2="402.3333333333333" y1="372.5" y2="372.5" class="net_50,51,52,53,54,55,56,57,58,59 width_10" style="stroke-width: 2"/><line x1="109" x2="139" y1="613.5" y2="613.5" class="net_50,51,52,53,54,55,56,57,58,59 width_10" style="stroke-width: 2"/><line x1="139" x2="139" y1="613.5" y2="216" class="net_50,51,52,53,54,55,56,57,58,59 width_10" style="stroke-width: 2"/><line x1="139" x2="368" y1="216" y2="216" class="net_50,51,52,53,54,55,56,57,58,59 width_10" style="stroke-width: 2"/><line x1="368" x2="368" y1="216" y2="237" class="net_50,51,52,53,54,55,56,57,58,59 width_10" style="stroke-width: 2"/><circle cx="139" cy="216" r="3" style="fill:#000" class="net_50,51,52,53,54,55,56,57,58,59 width_10"/><line x1="368" x2="402.3333333333333" y1="237" y2="237" class="net_50,51,52,53,54,55,56,57,58,59 width_10" style="stroke-width: 2"/><line x1="109" x2="139" y1="613.5" y2="613.5" class="net_50,51,52,53,54,55,56,57,58,59 width_10" style="stroke-width: 2"/><line x1="139" x2="139" y1="613.5" y2="152" class="net_50,51,52,53,54,55,56,57,58,59 width_10" style="stroke-width: 2"/><line x1="139" x2="199" y1="152" y2="152" class="net_50,51,52,53,54,55,56,57,58,59 width_10" style="stroke-width: 2"/><line x1="199" x2="199" y1="152" y2="157" class="net_50,51,52,53,54,55,56,57,58,59 width_10" style="stroke-width: 2"/><circle cx="139" cy="152" r="3" style="fill:#000" class="net_50,51,52,53,54,55,56,57,58,59 width_10"/><line x1="199" x2="232" y1="157" y2="157" class="net_50,51,52,53,54,55,56,57,58,59 width_10" style="stroke-width: 2"/><line x1="109" x2="139" y1="613.5" y2="613.5" class="net_50,51,52,53,54,55,56,57,58,59 width_10" style="stroke-width: 2"/><line x1="139" x2="139" y1="613.5" y2="72" class="net_50,51,52,53,54,55,56,57,58,59 width_10" style="stroke-width: 2"/><line x1="139" x2="199" y1="72" y2="72" class="net_50,51,52,53,54,55,56,57,58,59 width_10" style="stroke-width: 2"/><line x1="199" x2="199" y1="72" y2="77" class="net_50,51,52,53,54,55,56,57,58,59 width_10" style="stroke-width: 2"/><circle cx="139" cy="72" r="3" style="fill:#000" class="net_50,51,52,53,54,55,56,57,58,59 width_10"/><line x1="199" x2="232" y1="77" y2="77" class="net_50,51,52,53,54,55,56,57,58,59 width_10" style="stroke-width: 2"/><line x1="109" x2="139" y1="613.5" y2="613.5" class="net_50,51,52,53,54,55,56,57,58,59 width_10" style="stroke-width: 2"/><line x1="139" x2="139" y1="613.5" y2="31" class="net_50,51,52,53,54,55,56,57,58,59 width_10" style="stroke-width: 2"/><line x1="139" x2="368" y1="31" y2="31" class="net_50,51,52,53,54,55,56,57,58,59 width_10" style="stroke-width: 2"/><line x1="368" x2="368" y1="31" y2="64.5" class="net_50,51,52,53,54,55,56,57,58,59 width_10" style="stroke-width: 2"/><line x1="368" x2="399.6666666666667" y1="64.5" y2="64.5" class="net_50,51,52,53,54,55,56,57,58,59 width_10" style="stroke-width: 2"/><line x1="109" x2="139" y1="613.5" y2="613.5" class="net_50,51,52,53,54,55,56,57,58,59 width_10" style="stroke-width: 2"/><line x1="139" x2="139" y1="613.5" y2="133.5" class="net_50,51,52,53,54,55,56,57,58,59 width_10" style="stroke-width: 2"/><circle cx="139" cy="133.5" r="3" style="fill:#000" class="net_50,51,52,53,54,55,56,57,58,59 width_10"/><line x1="139" x2="662.6666666666666" y1="133.5" y2="133.5" class="net_50,51,52,53,54,55,56,57,58,59 width_10" style="stroke-width: 2"/><line x1="109" x2="139" y1="613.5" y2="613.5" class="net_50,51,52,53,54,55,56,57,58,59 width_10" style="stroke-width: 2"/><line x1="139" x2="139" y1="613.5" y2="31" class="net_50,51,52,53,54,55,56,57,58,59 width_10" style="stroke-width: 2"/><line x1="139" x2="199" y1="31" y2="31" class="net_50,51,52,53,54,55,56,57,58,59 width_10" style="stroke-width: 2"/><line x1="199" x2="199" y1="31" y2="16" class="net_50,51,52,53,54,55,56,57,58,59 width_10" style="stroke-width: 2"/><line x1="199" x2="769" y1="16" y2="16" class="net_50,51,52,53,54,55,56,57,58,59 width_10" style="stroke-width: 2"/><line x1="769" x2="769" y1="16" y2="103.5" class="net_50,51,52,53,54,55,56,57,58,59 width_10" style="stroke-width: 2"/><circle cx="199" cy="31" r="3" style="fill:#000" class="net_50,51,52,53,54,55,56,57,58,59 width_10"/><line x1="769" x2="794" y1="103.5" y2="103.5" class="net_50,51,52,53,54,55,56,57,58,59 width_10" style="stroke-width: 2"/><line x1="109" x2="139" y1="613.5" y2="613.5" class="net_50,51,52,53,54,55,56,57,58,59 width_10" style="stroke-width: 2"/><line x1="139" x2="139" y1="613.5" y2="573.5" class="net_50,51,52,53,54,55,56,57,58,59 width_10" style="stroke-width: 2"/><line x1="139" x2="199" y1="573.5" y2="573.5" class="net_50,51,52,53,54,55,56,57,58,59 width_10" style="stroke-width: 2"/><line x1="199" x2="199" y1="573.5" y2="578.5" class="net_50,51,52,53,54,55,56,57,58,59 width_10" style="stroke-width: 2"/><circle cx="139" cy="573.5" r="3" style="fill:#000" class="net_50,51,52,53,54,55,56,57,58,59 width_10"/><line x1="199" x2="232" y1="578.5" y2="578.5" class="net_50,51,52,53,54,55,56,57,58,59 width_10" style="stroke-width: 2"/><line x1="109" x2="199" y1="613.5" y2="613.5" class="net_50,51,52,53,54,55,56,57,58,59 width_10" style="stroke-width: 2"/><line x1="199" x2="199" y1="613.5" y2="683.5" class="net_50,51,52,53,54,55,56,57,58,59 width_10" style="stroke-width: 2"/><line x1="199" x2="232" y1="683.5" y2="683.5" class="net_50,51,52,53,54,55,56,57,58,59 width_10" style="stroke-width: 2"/><line x1="109" x2="149" y1="698.5" y2="698.5" class="net_164,165,166,167,168,169 width_6" style="stroke-width: 2"/><line x1="149" x2="149" y1="698.5" y2="387.5" class="net_164,165,166,167,168,169 width_6" style="stroke-width: 2"/><circle cx="149" cy="698.5" r="3" style="fill:#000" class="net_164,165,166,167,168,169 width_6"/><line x1="149" x2="402.3333333333333" y1="387.5" y2="387.5" class="net_164,165,166,167,168,169 width_6" style="stroke-width: 2"/><line x1="109" x2="149" y1="698.5" y2="698.5" class="net_164,165,166,167,168,169 width_6" style="stroke-width: 2"/><line x1="149" x2="149" y1="698.5" y2="593.5" class="net_164,165,166,167,168,169 width_6" style="stroke-width: 2"/><circle cx="149" cy="593.5" r="3" style="fill:#000" class="net_164,165,166,167,168,169 width_6"/><line x1="149" x2="232" y1="593.5" y2="593.5" class="net_164,165,166,167,168,169 width_6" style="stroke-width: 2"/><line x1="109" x2="232" y1="698.5" y2="698.5" class="net_164,165,166,167,168,169 width_6" style="stroke-width: 2"/><line x1="425.3333333333333" x2="464" y1="380" y2="380" class="net_60 width_1" style="stroke-width: 1"/><line x1="109" x2="286" y1="347.5" y2="347.5" class="net_170,171 width_2" style="stroke-width: 2"/><line x1="286" x2="286" y1="347.5" y2="252" class="net_170,171 width_2" style="stroke-width: 2"/><line x1="286" x2="402.3333333333333" y1="252" y2="252" class="net_170,171 width_2" style="stroke-width: 2"/><line x1="109" x2="119" y1="347.5" y2="347.5" class="net_170,171 width_2" style="stroke-width: 2"/><line x1="119" x2="119" y1="347.5" y2="92" class="net_170,171 width_2" style="stroke-width: 2"/><circle cx="119" cy="347.5" r="3" style="fill:#000" class="net_170,171 width_2"/><line x1="119" x2="232" y1="92" y2="92" class="net_170,171 width_2" style="stroke-width: 2"/><line x1="109" x2="129" y1="558.5" y2="558.5" class="net_172,173,174,175,176,177,178,179,180,181 width_10" style="stroke-width: 2"/><line x1="129" x2="129" y1="558.5" y2="172" class="net_172,173,174,175,176,177,178,179,180,181 width_10" style="stroke-width: 2"/><line x1="129" x2="232" y1="172" y2="172" class="net_172,173,174,175,176,177,178,179,180,181 width_10" style="stroke-width: 2"/><line x1="255" x2="320" y1="164.5" y2="164.5" class="net_72 width_1" style="stroke-width: 1"/><line x1="256" x2="399.6666666666667" y1="84.5" y2="84.5" class="net_74,75,76,77,78,79,80,81,82,83 width_10" style="stroke-width: 2"/><line x1="350" x2="412.6666666666667" y1="157" y2="157" class="net_73 width_1" style="stroke-width: 1"/><line x1="412.6666666666667" x2="412.6666666666667" y1="157" y2="92.5" class="net_73 width_1" style="stroke-width: 1"/><line x1="425.1666666666667" x2="504" y1="74.5" y2="74.5" class="net_84,85,86,87,88,89,90,91,92,93 width_10" style="stroke-width: 2"/><line x1="504" x2="504" y1="74.5" y2="92.5" class="net_84,85,86,87,88,89,90,91,92,93 width_10" style="stroke-width: 2"/><line x1="504" x2="530.6666666666666" y1="92.5" y2="92.5" class="net_84,85,86,87,88,89,90,91,92,93 width_10" style="stroke-width: 2"/><line x1="425.3333333333333" x2="439" y1="244.5" y2="244.5" class="net_62,63,64,65,66,67,68,69,70,71 width_10" style="stroke-width: 2"/><line x1="439" x2="439" y1="244.5" y2="112.5" class="net_62,63,64,65,66,67,68,69,70,71 width_10" style="stroke-width: 2"/><line x1="439" x2="530.6666666666666" y1="112.5" y2="112.5" class="net_62,63,64,65,66,67,68,69,70,71 width_10" style="stroke-width: 2"/><line x1="494" x2="543.6666666666666" y1="372.5" y2="372.5" class="net_61 width_1" style="stroke-width: 1"/><line x1="543.6666666666666" x2="543.6666666666666" y1="372.5" y2="120.5" class="net_61 width_1" style="stroke-width: 1"/><line x1="556.1666666666666" x2="636" y1="102.5" y2="102.5" class="net_94,95,96,97,98,99,100,101,102,103 width_10" style="stroke-width: 2"/><line x1="636" x2="636" y1="102.5" y2="113.5" class="net_94,95,96,97,98,99,100,101,102,103 width_10" style="stroke-width: 2"/><line x1="636" x2="662.6666666666666" y1="113.5" y2="113.5" class="net_94,95,96,97,98,99,100,101,102,103 width_10" style="stroke-width: 2"/><line x1="625.3333333333334" x2="675.6666666666666" y1="259.5" y2="259.5" class="net_49 width_1" style="stroke-width: 1"/><line x1="675.6666666666666" x2="675.6666666666666" y1="259.5" y2="141.5" class="net_49 width_1" style="stroke-width: 1"/><line x1="42" x2="727" y1="772" y2="772" class="net_4 width_1" style="stroke-width: 1"/><line x1="42" x2="62" y1="772" y2="772" class="net_4 width_1" style="stroke-width: 1"/><line x1="62" x2="62" y1="772" y2="633.5" class="net_4 width_1" style="stroke-width: 1"/><circle cx="62" cy="772" r="2" style="fill:#000" class="net_4 width_1"/><line x1="62" x2="77" y1="633.5" y2="633.5" class="net_4 width_1" style="stroke-width: 1"/><line x1="685" x2="702" y1="669.5" y2="669.5" class="net_43 width_1" style="stroke-width: 1"/><line x1="702" x2="702" y1="669.5" y2="752" class="net_43 width_1" style="stroke-width: 1"/><line x1="702" x2="727" y1="752" y2="752" class="net_43 width_1" style="stroke-width: 1"/><line x1="688.1666666666666" x2="794" y1="123.5" y2="123.5" class="net_104,105,106,107,108,109,110,111,112,113 width_10" style="stroke-width: 2"/><line x1="758" x2="807" y1="445" y2="445" class="net_46 width_1" style="stroke-width: 1"/><line x1="807" x2="807" y1="445" y2="131.5" class="net_46 width_1" style="stroke-width: 1"/><line x1="819.5" x2="846" y1="113.5" y2="113.5" class="net_114,115,116,117,118,119,120,121,122,123 width_10" style="stroke-width: 2"/><line x1="846" x2="846" y1="113.5" y2="793" class="net_114,115,116,117,118,119,120,121,122,123 width_10" style="stroke-width: 2"/><line x1="846" x2="52" y1="793" y2="793" class="net_114,115,116,117,118,119,120,121,122,123 width_10" style="stroke-width: 2"/><line x1="52" x2="52" y1="793" y2="613.5" class="net_114,115,116,117,118,119,120,121,122,123 width_10" style="stroke-width: 2"/><line x1="52" x2="77" y1="613.5" y2="613.5" class="net_114,115,116,117,118,119,120,121,122,123 width_10" style="stroke-width: 2"/><line x1="255" x2="306" y1="586" y2="586" class="net_124,125,126,127,128,129,130,131,132,133 width_10" style="stroke-width: 2"/><line x1="306" x2="306" y1="586" y2="483.5" class="net_124,125,126,127,128,129,130,131,132,133 width_10" style="stroke-width: 2"/><line x1="306" x2="402.3333333333333" y1="483.5" y2="483.5" class="net_124,125,126,127,128,129,130,131,132,133 width_10" style="stroke-width: 2"/><line x1="759" x2="794" y1="752" y2="752" class="net_25 width_1" style="stroke-width: 1"/><rect x="336" y="458.5" width="22" height="9" class="net_5,6,7,8,9,10,11,12,13,14 width_10 busLabel_10" style="fill: white; stroke: none"/><text x="335" y="466.5" class="net_5,6,7,8,9,10,11,12,13,14 width_10 busLabel_10">/10/</text><rect x="336" y="458.5" width="22" height="9" class="net_5,6,7,8,9,10,11,12,13,14 width_10 busLabel_10" style="fill: white; stroke: none"/><text x="335" y="466.5" class="net_5,6,7,8,9,10,11,12,13,14 width_10 busLabel_10">/10/</text><rect x="336" y="458.5" width="22" height="9" class="net_5,6,7,8,9,10,11,12,13,14 width_10 busLabel_10" style="fill: white; stroke: none"/><text x="335" y="466.5" class="net_5,6,7,8,9,10,11,12,13,14 width_10 busLabel_10">/10/</text><rect x="336" y="686" width="22" height="9" class="net_26,27,28,29,30,31,32,33,34,35 width_10 busLabel_10" style="fill: white; stroke: none"/><text x="335" y="694" class="net_26,27,28,29,30,31,32,33,34,35 width_10 busLabel_10">/10/</text><rect x="478" y="447.5" width="22" height="9" class="net_15,16,17,18,19,20,21,22,23,24 width_10 busLabel_10" style="fill: white; stroke: none"/><text x="477" y="455.5" class="net_15,16,17,18,19,20,21,22,23,24 width_10 busLabel_10">/10/</text><rect x="478" y="447.5" width="22" height="9" class="net_15,16,17,18,19,20,21,22,23,24 width_10 busLabel_10" style="fill: white; stroke: none"/><text x="477" y="455.5" class="net_15,16,17,18,19,20,21,22,23,24 width_10 busLabel_10">/10/</text><rect x="478" y="447.5" width="22" height="9" class="net_15,16,17,18,19,20,21,22,23,24 width_10 busLabel_10" style="fill: white; stroke: none"/><text x="477" y="455.5" class="net_15,16,17,18,19,20,21,22,23,24 width_10 busLabel_10">/10/</text><rect x="412.5" y="617" width="16" height="9" class="net_134,135,136,137,138,139,140,141,142 width_9 busLabel_9" style="fill: white; stroke: none"/><text x="411.5" y="625" class="net_134,135,136,137,138,139,140,141,142 width_9 busLabel_9">/9/</text><rect x="478" y="747" width="16" height="9" class="net_143,144,145,146,147,148,149,150,151 width_9 busLabel_9" style="fill: white; stroke: none"/><text x="477" y="755" class="net_143,144,145,146,147,148,149,150,151 width_9 busLabel_9">/9/</text><rect x="609.5" y="397.5" width="22" height="9" class="net_154,155,156,157,158,159,160,161,162,163 width_10 busLabel_10" style="fill: white; stroke: none"/><text x="608.5" y="405.5" class="net_154,155,156,157,158,159,160,161,162,163 width_10 busLabel_10">/10/</text><rect x="173" y="608.5" width="22" height="9" class="net_50,51,52,53,54,55,56,57,58,59 width_10 busLabel_10" style="fill: white; stroke: none"/><text x="172" y="616.5" class="net_50,51,52,53,54,55,56,57,58,59 width_10 busLabel_10">/10/</text><rect x="173" y="608.5" width="22" height="9" class="net_50,51,52,53,54,55,56,57,58,59 width_10 busLabel_10" style="fill: white; stroke: none"/><text x="172" y="616.5" class="net_50,51,52,53,54,55,56,57,58,59 width_10 busLabel_10">/10/</text><rect x="173" y="608.5" width="22" height="9" class="net_50,51,52,53,54,55,56,57,58,59 width_10 busLabel_10" style="fill: white; stroke: none"/><text x="172" y="616.5" class="net_50,51,52,53,54,55,56,57,58,59 width_10 busLabel_10">/10/</text><rect x="173" y="608.5" width="22" height="9" class="net_50,51,52,53,54,55,56,57,58,59 width_10 busLabel_10" style="fill: white; stroke: none"/><text x="172" y="616.5" class="net_50,51,52,53,54,55,56,57,58,59 width_10 busLabel_10">/10/</text><rect x="173" y="608.5" width="22" height="9" class="net_50,51,52,53,54,55,56,57,58,59 width_10 busLabel_10" style="fill: white; stroke: none"/><text x="172" y="616.5" class="net_50,51,52,53,54,55,56,57,58,59 width_10 busLabel_10">/10/</text><rect x="173" y="608.5" width="22" height="9" class="net_50,51,52,53,54,55,56,57,58,59 width_10 busLabel_10" style="fill: white; stroke: none"/><text x="172" y="616.5" class="net_50,51,52,53,54,55,56,57,58,59 width_10 busLabel_10">/10/</text><rect x="173" y="608.5" width="22" height="9" class="net_50,51,52,53,54,55,56,57,58,59 width_10 busLabel_10" style="fill: white; stroke: none"/><text x="172" y="616.5" class="net_50,51,52,53,54,55,56,57,58,59 width_10 busLabel_10">/10/</text><rect x="173" y="608.5" width="22" height="9" class="net_50,51,52,53,54,55,56,57,58,59 width_10 busLabel_10" style="fill: white; stroke: none"/><text x="172" y="616.5" class="net_50,51,52,53,54,55,56,57,58,59 width_10 busLabel_10">/10/</text><rect x="173" y="608.5" width="22" height="9" class="net_50,51,52,53,54,55,56,57,58,59 width_10 busLabel_10" style="fill: white; stroke: none"/><text x="172" y="616.5" class="net_50,51,52,53,54,55,56,57,58,59 width_10 busLabel_10">/10/</text><rect x="173" y="693.5" width="16" height="9" class="net_164,165,166,167,168,169 width_6 busLabel_6" style="fill: white; stroke: none"/><text x="172" y="701.5" class="net_164,165,166,167,168,169 width_6 busLabel_6">/6/</text><rect x="173" y="693.5" width="16" height="9" class="net_164,165,166,167,168,169 width_6 busLabel_6" style="fill: white; stroke: none"/><text x="172" y="701.5" class="net_164,165,166,167,168,169 width_6 busLabel_6">/6/</text><rect x="173" y="693.5" width="16" height="9" class="net_164,165,166,167,168,169 width_6 busLabel_6" style="fill: white; stroke: none"/><text x="172" y="701.5" class="net_164,165,166,167,168,169 width_6 busLabel_6">/6/</text><rect x="173" y="87" width="16" height="9" class="net_170,171 width_2 busLabel_2" style="fill: white; stroke: none"/><text x="172" y="95" class="net_170,171 width_2 busLabel_2">/2/</text><rect x="173" y="87" width="16" height="9" class="net_170,171 width_2 busLabel_2" style="fill: white; stroke: none"/><text x="172" y="95" class="net_170,171 width_2 busLabel_2">/2/</text><rect x="173" y="167" width="22" height="9" class="net_172,173,174,175,176,177,178,179,180,181 width_10 busLabel_10" style="fill: white; stroke: none"/><text x="172" y="175" class="net_172,173,174,175,176,177,178,179,180,181 width_10 busLabel_10">/10/</text><rect x="336" y="79.5" width="22" height="9" class="net_74,75,76,77,78,79,80,81,82,83 width_10 busLabel_10" style="fill: white; stroke: none"/><text x="335" y="87.5" class="net_74,75,76,77,78,79,80,81,82,83 width_10 busLabel_10">/10/</text><rect x="478" y="69.5" width="22" height="9" class="net_84,85,86,87,88,89,90,91,92,93 width_10 busLabel_10" style="fill: white; stroke: none"/><text x="477" y="77.5" class="net_84,85,86,87,88,89,90,91,92,93 width_10 busLabel_10">/10/</text><rect x="478" y="107.5" width="22" height="9" class="net_62,63,64,65,66,67,68,69,70,71 width_10 busLabel_10" style="fill: white; stroke: none"/><text x="477" y="115.5" class="net_62,63,64,65,66,67,68,69,70,71 width_10 busLabel_10">/10/</text><rect x="609.5" y="97.5" width="22" height="9" class="net_94,95,96,97,98,99,100,101,102,103 width_10 busLabel_10" style="fill: white; stroke: none"/><text x="608.5" y="105.5" class="net_94,95,96,97,98,99,100,101,102,103 width_10 busLabel_10">/10/</text><rect x="742" y="118.5" width="22" height="9" class="net_104,105,106,107,108,109,110,111,112,113 width_10 busLabel_10" style="fill: white; stroke: none"/><text x="741" y="126.5" class="net_104,105,106,107,108,109,110,111,112,113 width_10 busLabel_10">/10/</text><rect x="478" y="788" width="22" height="9" class="net_114,115,116,117,118,119,120,121,122,123 width_10 busLabel_10" style="fill: white; stroke: none"/><text x="477" y="796" class="net_114,115,116,117,118,119,120,121,122,123 width_10 busLabel_10">/10/</text><rect x="336" y="478.5" width="22" height="9" class="net_124,125,126,127,128,129,130,131,132,133 width_10 busLabel_10" style="fill: white; stroke: none"/><text x="335" y="486.5" class="net_124,125,126,127,128,129,130,131,132,133 width_10 busLabel_10">/10/</text></svg>