<svg xmlns="http://www.w3.org/2000/svg" xmlns:xlink="http://www.w3.org/1999/xlink" xmlns:s="https://github.com/nturley/netlistsvg" width="367" height="184"><style>svg {
  stroke:#000;
  fill:none;
}
text {
  fill:#000;
  stroke:none;
  font-size:10px;
  font-weight: bold;
  font-family: "Courier New", monospace;
}
line {
    stroke-linecap: round;
}
.nodelabel {
  text-anchor: middle;
}
.inputPortLabel {
  text-anchor: end;
}
.splitjoinBody {
  fill:#000;
}</style><g s:type="generic" transform="translate(156,66.5)" s:width="30" s:height="40" id="cell_dut1"><text x="15" y="-4" class="nodelabel cell_dut1" s:attribute="ref">SB_PLL40_CORE</text><rect width="30" height="60" s:generic="body" class="cell_dut1"/><g transform="translate(0,10)" s:x="0" s:y="10" s:pid="in0" id="port_dut1~BYPASS"><text x="-3" y="-4" class="inputPortLabel cell_dut1">BYPASS</text></g><g transform="translate(0,30)" s:x="0" s:y="10" s:pid="in0" id="port_dut1~REFERENCECLK"><text x="-3" y="-4" class="inputPortLabel cell_dut1">REFERENCECLK</text></g><g transform="translate(0,50)" s:x="0" s:y="10" s:pid="in0" id="port_dut1~RESETB"><text x="-3" y="-4" class="inputPortLabel cell_dut1">RESETB</text></g><g transform="translate(30,10)" s:x="30" s:y="10" s:pid="out0" id="port_dut1~LOCK"><text x="5" y="-4" style="fill:#000; stroke:none" class="cell_dut1">LOCK</text></g><g transform="translate(30,30)" s:x="30" s:y="10" s:pid="out0" id="port_dut1~PLLOUTGLOBAL"><text x="5" y="-4" style="fill:#000; stroke:none" class="cell_dut1">PLLOUTGLOBAL</text></g></g><g s:type="inputExt" transform="translate(12,87)" s:width="30" s:height="20" id="cell_clk_in"><text x="15" y="-4" class="nodelabel cell_clk_in" s:attribute="ref">clk_in</text><s:alias val="$_inputExt_"/><path d="M0,0 L0,20 L15,20 L30,10 L15,0 Z" class="cell_clk_in"/><g s:x="30" s:y="10" s:pid="Y"/></g><g s:type="outputExt" transform="translate(295,132)" s:width="30" s:height="20" id="cell_clk_out"><text x="15" y="-4" class="nodelabel cell_clk_out" s:attribute="ref">clk_out</text><s:alias val="$_outputExt_"/><path d="M30,0 L30,20 L15,20 L0,10 L15,0 Z" class="cell_clk_out"/><g s:x="0" s:y="10" s:pid="A"/></g><g s:type="outputExt" transform="translate(295,67)" s:width="30" s:height="20" id="cell_clk_locked"><text x="15" y="-4" class="nodelabel cell_clk_locked" s:attribute="ref">clk_locked</text><s:alias val="$_outputExt_"/><path d="M30,0 L30,20 L15,20 L0,10 L15,0 Z" class="cell_clk_locked"/><g s:x="0" s:y="10" s:pid="A"/></g><g s:type="constant" transform="translate(12,22)" s:width="30" s:height="20" id="cell_0"><text x="15" y="-4" class="nodelabel cell_0" s:attribute="ref">0</text><s:alias val="$_constant_"/><rect width="30" height="20" class="cell_0"/><g s:x="31" s:y="10" s:pid="Y"/></g><g s:type="constant" transform="translate(12,152)" s:width="30" s:height="20" id="cell_1"><text x="15" y="-4" class="nodelabel cell_1" s:attribute="ref">1</text><s:alias val="$_constant_"/><rect width="30" height="20" class="cell_1"/><g s:x="31" s:y="10" s:pid="Y"/></g><line x1="43" x2="58" y1="32" y2="32" class="net_5 width_1" style="stroke-width: 1"/><line x1="58" x2="58" y1="32" y2="77" class="net_5 width_1" style="stroke-width: 1"/><line x1="58" x2="156" y1="77" y2="77" class="net_5 width_1" style="stroke-width: 1"/><line x1="42" x2="156" y1="97" y2="97" class="net_2 width_1" style="stroke-width: 1"/><line x1="43" x2="58" y1="162" y2="162" class="net_6 width_1" style="stroke-width: 1"/><line x1="58" x2="58" y1="162" y2="117" class="net_6 width_1" style="stroke-width: 1"/><line x1="58" x2="156" y1="117" y2="117" class="net_6 width_1" style="stroke-width: 1"/><line x1="187" x2="270" y1="97" y2="97" class="net_3 width_1" style="stroke-width: 1"/><line x1="270" x2="270" y1="97" y2="142" class="net_3 width_1" style="stroke-width: 1"/><line x1="270" x2="295" y1="142" y2="142" class="net_3 width_1" style="stroke-width: 1"/><line x1="187" x2="295" y1="77" y2="77" class="net_4 width_1" style="stroke-width: 1"/></svg>